*
G04 Mass Parameters ***
*
G04 Image ***
*
%INC:\USERS\CHITA\ONEDRIVE\DESKTOP\NEW FOLDER\VANCA RAFAEL MARIAN\VANCA_RAFAEL_MARIAN\LABORATOR1.SPT*%
%ICAS*%
%MOIN*%
%IPPOS*%
%ASAXBY*%
G74*%FSLAN2X34Y34*%
*
G04 Aperture Definitions ***
*
%ADD10R,0.0500X0.0500*%
%ADD11C,0.0520*%
%ADD12R,0.0520X0.0520*%
%ADD13C,0.0580*%
%ADD14R,0.0580X0.0580*%
%ADD15C,0.0550*%
%ADD16R,0.0550X0.0550*%
%ADD17R,0.0400X0.0480*%
%ADD18C,0.0590*%
%ADD19C,0.0100*%
%ADD20C,0.0120*%
%ADD21C,0.0500*%
%ADD22C,0.0197*%
%ADD23C,0.0500*%
%ADD24C,0.0650*%
%ADD25C,0.0550*%
*
G04 Plot Data ***
*
G54D10*
X0042220Y0017208D03*
Y0018048D03*
X0036436Y0007040D03*
X0037276D03*
X0037488Y0005704D03*
X0038328D03*
X0029348Y0002596D03*
X0030188D03*
X0023180Y0014452D03*
X0024020D03*
X0015456Y0025564D03*
Y0024724D03*
X0017556Y0009932D03*
X0018396D03*
X0007824Y0024568D03*
Y0023728D03*
X0007808Y0022664D03*
Y0021824D03*
X0015444Y0023184D03*
Y0022344D03*
X0021464Y0023732D03*
X0022304D03*
X0017836Y0017312D03*
X0018676D03*
X0008676Y0020632D03*
X0009516D03*
X0007792Y0020628D03*
Y0019788D03*
X0015380Y0020896D03*
Y0020056D03*
X0031524Y0005396D03*
X0032364D03*
X0033652Y0005408D03*
X0034492D03*
X0042996Y0005396D03*
X0042156D03*
X0044828Y0009088D03*
Y0009928D03*
X0040436Y0005488D03*
X0039596D03*
X0042696Y0010272D03*
X0041856D03*
X0041748Y0013908D03*
Y0013068D03*
X0026332Y0002436D03*
X0027172D03*
X0021564Y0014184D03*
Y0013344D03*
X0015160Y0014328D03*
Y0013488D03*
X0026144Y0000964D03*
X0026984D03*
X0022012Y0003180D03*
X0022852D03*
X0003596Y0016864D03*
Y0016024D03*
X0021484Y0025616D03*
X0022324D03*
X0013788Y0005888D03*
X0014628D03*
X0021532Y0021612D03*
X0022372D03*
X0021480Y0019932D03*
X0022320D03*
G54D17*
X0013968Y0007672D03*
X0014758D03*
M02*
