*
G04 Mass Parameters ***
*
G04 Image ***
*
%INC:\USERS\CHITA\ONEDRIVE\DESKTOP\NEW FOLDER\VANCA RAFAEL MARIAN\VANCA_RAFAEL_MARIAN\LABORATOR1.IN2*%
%ICAS*%
%MOIN*%
%IPPOS*%
%ASAXBY*%
G74*%FSLAN2X34Y34*%
*
G04 Aperture Definitions ***
*
%ADD10R,0.0500X0.0500*%
%ADD11C,0.0520*%
%ADD12R,0.0520X0.0520*%
%ADD13C,0.0580*%
%ADD14R,0.0580X0.0580*%
%ADD15C,0.0550*%
%ADD16R,0.0550X0.0550*%
%ADD17R,0.0400X0.0480*%
%ADD18C,0.0590*%
%ADD19C,0.0100*%
%ADD20C,0.0120*%
%ADD21C,0.0500*%
%ADD22C,0.0197*%
%ADD23C,0.0500*%
*
G04 Plot Data ***
*
G54D19*
G01X0031162Y0026260D02*
X0030220D01*
X0029278D02*
X0030220D01*
X0019237Y0022735D02*
X0018596Y0023376D01*
X0019237Y0024017D02*
X0018596Y0023376D01*
X0019204Y0014627D02*
Y0013720D01*
X0018297D02*
X0019204D01*
X0018958Y0024058D02*
X0019592Y0023424D01*
X0020226Y0022790D02*
X0019592Y0023424D01*
X0020226Y0024058D02*
X0019592Y0023424D01*
X0018958Y0024058D02*
X0019592Y0023424D01*
X0020226Y0022790D02*
X0019592Y0023424D01*
X0020226Y0024058D02*
X0019592Y0023424D01*
X0015670Y0024606D02*
X0016304Y0023972D01*
X0015670Y0023338D02*
X0016304Y0023972D01*
X0016938Y0024606D02*
X0016304Y0023972D01*
X0017802Y0014900D02*
X0016880D01*
X0015958D02*
X0016880D01*
Y0015822D02*
Y0014900D01*
X0015041Y0024468D02*
X0014104D01*
X0013167D02*
X0014104D01*
X0015013Y0022272D02*
X0014076D01*
X0013139D02*
X0014076D01*
X0004939Y0017923D02*
X0005580Y0018564D01*
X0005290Y0016614D02*
X0004656Y0015980D01*
X0004778Y0017922D02*
X0004144Y0018556D01*
X0004778Y0019190D02*
X0004144Y0018556D01*
X0004022Y0016614D02*
X0004656Y0015980D01*
X0005290Y0015346D02*
X0004656Y0015980D01*
X0004022Y0015346D02*
X0004656Y0015980D01*
X0005290Y0016614D02*
X0004656Y0015980D01*
X0004022Y0016614D02*
X0004656Y0015980D01*
X0005290Y0015346D02*
X0004656Y0015980D01*
X0004022Y0015346D02*
X0004656Y0015980D01*
X0005290Y0016614D02*
X0004656Y0015980D01*
X0003148Y0017702D02*
Y0018624D01*
Y0019546D02*
Y0018624D01*
X0002822Y0020222D02*
X0003484Y0020884D01*
X0004146Y0020222D02*
X0003484Y0020884D01*
X0011738Y0023934D02*
X0011076Y0023272D01*
X0010414Y0023934D02*
X0011076Y0023272D01*
X0010139Y0021112D02*
X0011076D01*
X0012013D02*
X0011076D01*
X0004939Y0019205D02*
X0005580Y0018564D01*
X0004022Y0016614D02*
X0004656Y0015980D01*
X0005290Y0015346D02*
X0004656Y0015980D01*
X0004022Y0015346D02*
X0004656Y0015980D01*
G54D23*
G01X0045464Y0026740D02*
Y0013456D01*
X0045014Y0026740D02*
Y0013456D01*
X0044564Y0026740D02*
Y0013456D01*
X0044114Y0026740D02*
Y0013456D01*
X0043664Y0026740D02*
Y0013456D01*
X0043214Y0026740D02*
Y0013456D01*
X0042764Y0026740D02*
Y0013456D01*
X0042314Y0026740D02*
Y0013456D01*
X0041864Y0026740D02*
Y0013456D01*
X0041414Y0026740D02*
Y0013456D01*
X0040964Y0026740D02*
Y0013456D01*
X0040514Y0026740D02*
Y0013456D01*
X0040064Y0026740D02*
Y0013456D01*
X0039614Y0026740D02*
Y0013456D01*
X0039164Y0026740D02*
Y0013456D01*
X0046396Y0014356D02*
X0030712D01*
X0038264Y0026740D02*
Y0013456D01*
X0037814Y0026740D02*
Y0013456D01*
X0037364Y0026740D02*
Y0013456D01*
X0036914Y0026740D02*
Y0013456D01*
X0036464Y0026740D02*
Y0013456D01*
X0036014Y0026740D02*
Y0013456D01*
X0035564Y0026740D02*
Y0013456D01*
X0035114Y0026740D02*
Y0013456D01*
X0034664Y0026740D02*
Y0013456D01*
X0034214Y0026740D02*
Y0013456D01*
X0033764Y0026740D02*
Y0013456D01*
X0033314Y0026740D02*
Y0013456D01*
X0032864Y0026740D02*
Y0013456D01*
X0032414Y0026740D02*
Y0013456D01*
X0031964Y0026740D02*
Y0013456D01*
X0031514Y0026740D02*
Y0013456D01*
X0029493Y0018406D02*
X0027947D01*
X0013388Y0023009D02*
X0013339D01*
X0046396Y0019756D02*
X0030771D01*
X0029714Y0013654D02*
Y0013456D01*
X0029264Y0026740D02*
Y0013456D01*
X0028814Y0026740D02*
Y0013456D01*
X0026114Y0026740D02*
Y0017470D01*
X0026564Y0016181D02*
Y0013456D01*
X0025664Y0016345D02*
Y0013456D01*
X0026543Y0017956D02*
X0018369D01*
X0023855Y0017315D02*
Y0017251D01*
X0025214Y0020258D02*
Y0013456D01*
X0029870Y0016606D02*
X0027570D01*
X0023864Y0015961D02*
Y0013456D01*
X0022514Y0015901D02*
Y0013456D01*
X0022064Y0026740D02*
Y0013456D01*
X0018497Y0014427D02*
Y0013456D01*
X0029327Y0014356D02*
X0020512D01*
X0019911Y0014427D02*
Y0014363D01*
X0018497Y0013456D02*
X0017449D01*
X0020264Y0026740D02*
Y0023608D01*
X0021164Y0026740D02*
Y0013456D01*
X0020264Y0023240D02*
Y0014424D01*
X0026485Y0025156D02*
X0025286D01*
X0018014Y0026740D02*
Y0024083D01*
X0013399Y0014591D02*
Y0014527D01*
X0019814Y0026740D02*
Y0024084D01*
X0013339Y0022006D02*
X0013229D01*
X0014813Y0023009D02*
Y0021923D01*
X0013399Y0014591D02*
X0013064D01*
X0013339Y0021556D02*
X0013229D01*
X0029520Y0026506D02*
X0027920D01*
X0014414Y0026740D02*
Y0026136D01*
X0024314Y0024427D02*
Y0023341D01*
X0014813Y0023009D02*
X0014764D01*
X0013367Y0025156D02*
X0013229D01*
X0016889Y0022906D02*
X0014813D01*
X0024100Y0021106D02*
X0015938D01*
X0013339Y0022456D02*
X0013229D01*
X0014864Y0021103D02*
Y0013456D01*
X0013514Y0019636D02*
Y0014568D01*
X0027914Y0016998D02*
Y0013456D01*
X0027464Y0016559D02*
Y0013456D01*
X0025533Y0016606D02*
X0024854D01*
X0023414Y0015901D02*
Y0013456D01*
X0018464Y0018085D02*
Y0013456D01*
X0016158Y0015256D02*
X0013228D01*
X0017602Y0014178D02*
X0017546D01*
X0046396Y0015706D02*
X0013229D01*
X0031064Y0026740D02*
Y0013456D01*
X0016214Y0014178D02*
X0016158D01*
X0022514Y0026740D02*
Y0024425D01*
X0017164Y0018406D02*
X0013229D01*
X0027014Y0016547D02*
Y0013456D01*
X0026668Y0019756D02*
X0014721D01*
X0027914Y0017998D02*
Y0017521D01*
X0029593Y0020656D02*
X0027847D01*
X0026598Y0018856D02*
X0018413D01*
X0027914Y0018998D02*
Y0018521D01*
X0028364Y0026740D02*
Y0013456D01*
X0029598Y0018856D02*
X0027842D01*
X0029480Y0019306D02*
X0027960D01*
X0027914Y0021998D02*
Y0021521D01*
X0026564Y0021914D02*
Y0021606D01*
X0026494Y0021106D02*
X0025332D01*
X0029494D02*
X0027945D01*
X0027914Y0020998D02*
Y0020521D01*
Y0022998D02*
Y0022521D01*
X0029714Y0016718D02*
Y0014906D01*
X0029505Y0022456D02*
X0027935D01*
X0026484Y0023356D02*
X0025096D01*
X0029564Y0025606D02*
X0027876D01*
X0029478Y0024256D02*
X0027961D01*
X0027914Y0024998D02*
Y0024521D01*
X0046396Y0026056D02*
X0030933D01*
X0026654Y0026740D02*
X0013229D01*
X0018303Y0024083D02*
X0016992D01*
X0013367Y0025205D02*
Y0023731D01*
X0019364Y0022766D02*
Y0014427D01*
X0014841Y0025205D02*
Y0023731D01*
X0026523Y0022006D02*
X0015925D01*
X0014841Y0025205D02*
X0014792D01*
X0013416D02*
X0013367D01*
X0013660Y0026056D02*
X0013229D01*
X0013339Y0023009D02*
Y0021535D01*
X0025898Y0016156D02*
X0024691D01*
X0013514Y0020636D02*
Y0020588D01*
X0016214Y0013622D02*
Y0013456D01*
X0022964Y0015901D02*
Y0013456D01*
X0022441Y0016606D02*
X0013229D01*
X0023855Y0017315D02*
X0022441D01*
Y0015901D01*
X0023855D02*
X0022441D01*
X0024314Y0015921D02*
Y0013456D01*
X0018303Y0022733D02*
Y0022669D01*
X0024764Y0022055D02*
Y0021465D01*
X0018014Y0022669D02*
Y0019111D01*
X0046396Y0016156D02*
X0026518D01*
X0018303Y0022669D02*
X0016889D01*
X0046396Y0016606D02*
X0030570D01*
X0016311Y0013456D02*
X0014254D01*
X0019911Y0014427D02*
X0018497D01*
X0046396Y0013456D02*
X0020859D01*
X0016889Y0023594D02*
Y0022669D01*
X0013367Y0023806D02*
X0013229D01*
X0016158Y0014806D02*
X0013064D01*
X0022441Y0016156D02*
X0013229D01*
X0046396Y0026740D02*
Y0013456D01*
X0046364Y0026740D02*
Y0013456D01*
X0045914Y0026740D02*
Y0013456D01*
X0023855Y0015965D02*
Y0015901D01*
X0018464Y0026740D02*
Y0024070D01*
X0046396Y0018406D02*
X0030947D01*
X0018014Y0017752D02*
Y0013456D01*
X0046396Y0015256D02*
X0017602D01*
X0018914Y0026740D02*
Y0024007D01*
X0017564Y0017801D02*
Y0015622D01*
X0013514Y0026740D02*
Y0025909D01*
X0026564Y0017914D02*
Y0017606D01*
X0023864Y0026740D02*
Y0017255D01*
X0029432Y0013906D02*
X0020886D01*
X0017564Y0014178D02*
Y0014130D01*
X0016664Y0023375D02*
Y0015622D01*
X0017564Y0013670D02*
Y0013456D01*
X0013339Y0022906D02*
X0013229D01*
X0026505Y0022456D02*
X0025354D01*
X0016158Y0015622D02*
Y0014178D01*
X0017602Y0015622D02*
Y0014178D01*
Y0015622D02*
X0016158D01*
X0046396Y0025606D02*
X0030876D01*
X0029633Y0023806D02*
X0027806D01*
X0018303Y0024083D02*
Y0024019D01*
X0029507Y0026056D02*
X0027933D01*
X0026627Y0024706D02*
X0025193D01*
X0029485Y0025156D02*
X0027954D01*
X0046396Y0026506D02*
X0030920D01*
X0029627Y0024706D02*
X0027812D01*
X0046396Y0023356D02*
X0030955D01*
X0027914Y0023998D02*
Y0023521D01*
X0046396Y0020206D02*
X0030960D01*
X0029484Y0023356D02*
X0027955D01*
X0026564Y0019914D02*
Y0019606D01*
X0029523Y0022006D02*
X0027917D01*
X0046396Y0021106D02*
X0030945D01*
X0014864Y0026740D02*
Y0021993D01*
X0029480Y0020206D02*
X0027960D01*
X0029540Y0021556D02*
X0027900D01*
X0046396Y0013906D02*
X0030608D01*
X0027914Y0019998D02*
Y0019521D01*
X0029668Y0019756D02*
X0027771D01*
X0046396Y0019306D02*
X0030960D01*
X0029543Y0017956D02*
X0027896D01*
X0029520Y0017506D02*
X0027920D01*
X0026564Y0020914D02*
Y0020606D01*
X0026493Y0018406D02*
X0018556D01*
X0046396Y0018856D02*
X0030842D01*
X0021614Y0026740D02*
Y0013456D01*
X0026564Y0022914D02*
Y0022606D01*
X0026593Y0020656D02*
X0025415D01*
X0013473Y0021535D02*
X0013339D01*
X0016214Y0023281D02*
Y0015622D01*
X0015314Y0020856D02*
Y0013456D01*
X0026564Y0024914D02*
Y0024606D01*
X0029568Y0022906D02*
X0027872D01*
X0046396Y0022456D02*
X0030935D01*
X0022964Y0026740D02*
Y0024832D01*
X0026507Y0026056D02*
X0014548D01*
X0024158Y0025606D02*
X0014827D01*
X0026564Y0026740D02*
Y0026606D01*
X0015627Y0023806D02*
X0014841D01*
X0027914Y0025998D02*
Y0025521D01*
X0046396Y0021556D02*
X0030900D01*
X0046396Y0024706D02*
X0030812D01*
X0027914Y0026740D02*
Y0026521D01*
X0029654Y0026740D02*
X0027785D01*
X0013229D02*
Y0015260D01*
X0013964Y0026740D02*
Y0026191D01*
X0023414Y0023515D02*
Y0017315D01*
X0025214Y0024742D02*
Y0023261D01*
X0013500Y0023731D02*
X0013367D01*
X0015764Y0023532D02*
Y0022142D01*
X0022441Y0017056D02*
X0013229D01*
X0013367Y0024256D02*
X0013229D01*
X0015764Y0020954D02*
Y0013456D01*
X0015314Y0026740D02*
Y0022239D01*
X0024336Y0023356D02*
X0020285D01*
X0026114Y0016090D02*
Y0013456D01*
X0013344Y0023356D02*
X0013229D01*
X0026540Y0021556D02*
X0016096D01*
X0013345Y0020206D02*
X0013229D01*
X0013497Y0020656D02*
X0013229D01*
X0024314Y0022179D02*
Y0021341D01*
X0024764Y0020055D02*
Y0016954D01*
X0025664Y0026740D02*
Y0017215D01*
X0017564Y0022669D02*
Y0019062D01*
X0019814Y0022763D02*
Y0014427D01*
X0026520Y0017506D02*
X0013229D01*
X0026633Y0023806D02*
X0023757D01*
X0024764Y0016262D02*
Y0013456D01*
X0026480Y0019306D02*
X0013229D01*
X0019364Y0026740D02*
Y0024082D01*
X0022964Y0023495D02*
Y0017315D01*
X0018497Y0013906D02*
X0017601D01*
X0018497Y0014356D02*
X0017602D01*
X0014414Y0019457D02*
Y0013456D01*
X0026564Y0025914D02*
Y0025606D01*
X0016158Y0014356D02*
X0014218D01*
X0014841Y0023731D02*
X0014652D01*
X0022514Y0023903D02*
Y0017315D01*
X0016889Y0023356D02*
X0016629D01*
X0013367Y0024706D02*
X0013229D01*
X0017564Y0026740D02*
Y0024083D01*
X0013064Y0014810D02*
Y0014591D01*
X0022562Y0023806D02*
X0020174D01*
X0022722Y0024706D02*
X0014841D01*
X0015668Y0024256D02*
X0014841D01*
X0022469D02*
X0016940D01*
X0016664Y0026740D02*
Y0024568D01*
X0046396Y0017506D02*
X0030920D01*
X0015978Y0023356D02*
X0014808D01*
X0030614Y0013916D02*
Y0013456D01*
X0030164Y0013598D02*
Y0013456D01*
X0046396Y0014806D02*
X0030477D01*
X0029507Y0017056D02*
X0027933D01*
X0026568Y0022906D02*
X0025407D01*
X0016214Y0026740D02*
Y0024663D01*
X0014875Y0022006D02*
X0014813D01*
X0017114Y0026740D02*
Y0024083D01*
X0024017Y0020656D02*
X0014654D01*
X0023905Y0025156D02*
X0014841D01*
X0024024Y0022906D02*
X0020058D01*
X0023998Y0024706D02*
X0023598D01*
X0026478Y0024256D02*
X0023850D01*
X0024314Y0026740D02*
Y0025701D01*
X0023414Y0026740D02*
Y0024813D01*
X0026564Y0025606D02*
X0025034D01*
X0025214Y0026740D02*
Y0025385D01*
X0018914Y0022745D02*
Y0014427D01*
X0015764Y0026740D02*
Y0024412D01*
X0018464Y0022682D02*
Y0018779D01*
X0017307Y0018856D02*
X0013229D01*
X0026564Y0018914D02*
Y0018606D01*
X0013339Y0021106D02*
X0013229D01*
X0025568Y0017056D02*
X0024694D01*
X0014861Y0021106D02*
X0014812D01*
X0024277Y0020206D02*
X0014806D01*
X0024314Y0020179D02*
Y0017295D01*
X0026480Y0020206D02*
X0025155D01*
X0025214Y0022258D02*
Y0021261D01*
X0013380Y0025606D02*
X0013229D01*
X0024078Y0022456D02*
X0014813D01*
X0024764Y0026740D02*
Y0025740D01*
X0026564Y0023914D02*
Y0023606D01*
X0024764Y0024388D02*
Y0023465D01*
X0016158Y0013906D02*
X0014398D01*
X0020714Y0026740D02*
Y0014209D01*
X0026520Y0026506D02*
X0013229D01*
X0017114Y0022669D02*
Y0015622D01*
X0030164Y0016520D02*
Y0014961D01*
X0046396Y0026740D02*
X0030785D01*
X0046396Y0024256D02*
X0030961D01*
X0046396Y0023806D02*
X0030806D01*
X0013964Y0019384D02*
Y0014536D01*
X0046396Y0022006D02*
X0030917D01*
X0046396Y0020656D02*
X0030847D01*
X0046396Y0022906D02*
X0030872D01*
X0046396Y0025156D02*
X0030954D01*
X0046396Y0017056D02*
X0030933D01*
X0046396Y0017956D02*
X0030896D01*
X0038714Y0026740D02*
Y0013456D01*
X0030614Y0016631D02*
Y0014644D01*
X0017351Y0017956D02*
X0013229D01*
X0013431Y0019756D02*
X0013229D01*
X0029563Y0014806D02*
X0017602D01*
X0004446Y0015316D02*
Y0015260D01*
X0000565D02*
X0000396D01*
X0006246Y0026820D02*
Y0024581D01*
X0012372Y0026820D02*
X0000396D01*
X0001794Y0024582D02*
X0000396D01*
X0012367Y0026510D02*
X0000396D01*
X0010665Y0026060D02*
X0000396D01*
X0010435Y0025160D02*
X0000396D01*
X0010473Y0021849D02*
X0010339D01*
X0005796Y0023621D02*
Y0023147D01*
Y0022621D02*
Y0022147D01*
X0011196Y0019385D02*
Y0015260D01*
X0006246Y0020147D02*
Y0019271D01*
X0002646Y0017902D02*
Y0016031D01*
X0005796Y0020147D02*
Y0019237D01*
X0004446Y0026820D02*
Y0019184D01*
X0012367Y0019310D02*
X0003870D01*
X0005346Y0026820D02*
Y0019231D01*
X0000466Y0018860D02*
X0000396D01*
X0004014Y0015710D02*
X0002922D01*
X0000846Y0026820D02*
Y0024582D01*
X0012367Y0018410D02*
X0007287D01*
X0001979Y0016139D02*
X0000565D01*
X0012367Y0016610D02*
X0004953D01*
X0010408Y0024710D02*
X0000396D01*
X0012367Y0026740D02*
Y0015260D01*
X0010388Y0020375D02*
X0010339D01*
X0012096Y0026820D02*
Y0015260D01*
X0010746Y0019453D02*
Y0015260D01*
X0008846Y0023360D02*
X0007046D01*
X0005213Y0017960D02*
X0004505D01*
X0010296Y0026820D02*
Y0015260D01*
X0008946Y0022131D02*
Y0015260D01*
X0008496Y0026820D02*
Y0015260D01*
X0008046Y0026820D02*
Y0015260D01*
X0002196Y0017904D02*
Y0016134D01*
X0005873Y0017921D02*
Y0017857D01*
X0003096Y0017902D02*
Y0015260D01*
X0000865Y0017960D02*
X0000396D01*
X0003996Y0015757D02*
Y0015260D01*
X0002881Y0022460D02*
X0001673D01*
X0002758Y0022010D02*
X0001778D01*
X0001979Y0016139D02*
Y0016075D01*
X0011646Y0023969D02*
Y0023739D01*
X0012367Y0021110D02*
X0011813D01*
X0011646Y0026820D02*
Y0025967D01*
X0006696Y0026820D02*
Y0024589D01*
X0012367Y0022910D02*
X0011717D01*
X0001296Y0017918D02*
Y0016139D01*
X0010339Y0021849D02*
Y0020375D01*
X0012367Y0020210D02*
X0011806D01*
X0011813Y0021849D02*
Y0020375D01*
X0007146Y0020147D02*
Y0019271D01*
X0007287D02*
X0005873D01*
X0011646Y0019645D02*
Y0015260D01*
X0007287Y0017857D02*
X0005873D01*
X0007287Y0019271D02*
Y0017857D01*
X0012367Y0017960D02*
X0007287D01*
X0012367Y0017510D02*
X0000396D01*
X0007146Y0023561D02*
Y0023207D01*
Y0022561D02*
Y0022207D01*
Y0026820D02*
Y0024207D01*
X0009846Y0022466D02*
Y0015260D01*
X0005747Y0021621D02*
Y0020147D01*
X0007221D02*
X0005747D01*
X0007221Y0021621D02*
Y0020147D01*
X0005796Y0017891D02*
Y0015260D01*
X0006246Y0017857D02*
Y0015260D01*
X0003546Y0017902D02*
Y0015260D01*
X0002782Y0020660D02*
X0001765D01*
X0003096Y0026820D02*
Y0024510D01*
X0002426Y0017958D02*
Y0017902D01*
X0005796Y0026820D02*
Y0024147D01*
X0002850Y0024260D02*
X0002656D01*
X0001865Y0017960D02*
X0001431D01*
X0004896Y0015326D02*
Y0015260D01*
X0003870Y0019346D02*
X0002426D01*
X0001794Y0023214D02*
Y0023138D01*
X0003870Y0017902D02*
X0002426D01*
X0003996Y0017875D02*
Y0016203D01*
X0005747Y0020210D02*
X0003781D01*
X0002783Y0021110D02*
X0001749D01*
X0012367Y0015260D02*
X0002957D01*
X0005747Y0020660D02*
X0004186D01*
X0002196Y0023150D02*
Y0019344D01*
X0012367Y0018860D02*
X0007287D01*
X0006696Y0017857D02*
Y0015260D01*
X0011196Y0026820D02*
Y0026199D01*
X0000924Y0019310D02*
X0000396D01*
Y0020607D02*
Y0015260D01*
X0000565Y0015710D02*
X0000396D01*
X0010429Y0019760D02*
X0000396D01*
X0003187Y0020210D02*
X0001385D01*
X0004896Y0026820D02*
Y0018741D01*
X0011646Y0022805D02*
Y0022739D01*
X0012367Y0022460D02*
X0011788D01*
X0012367Y0024260D02*
X0011811D01*
X0000758Y0020210D02*
X0000396D01*
X0007146Y0017857D02*
Y0015260D01*
X0004358Y0016610D02*
X0000396D01*
X0001296Y0026820D02*
Y0024582D01*
X0012367Y0026060D02*
X0011542D01*
X0012367Y0025610D02*
X0011827D01*
X0011813Y0021849D02*
X0011679D01*
X0012367Y0025160D02*
X0011773D01*
X0012367Y0023810D02*
X0011579D01*
X0012367Y0023360D02*
X0011807D01*
X0010381Y0025610D02*
X0000396D01*
X0012367Y0016160D02*
X0005329D01*
X0011813Y0020375D02*
X0011764D01*
X0012367Y0024710D02*
X0011800D01*
X0012367Y0021560D02*
X0011813D01*
X0012367Y0019760D02*
X0011723D01*
X0005873Y0019271D02*
Y0019207D01*
X0006696Y0020147D02*
Y0019271D01*
X0012367Y0017060D02*
X0000396D01*
X0012367Y0020660D02*
X0011813D01*
X0001746Y0018025D02*
Y0016139D01*
X0003983Y0016160D02*
X0000396D01*
X0008946Y0026820D02*
Y0023412D01*
X0010397Y0024260D02*
X0007117D01*
X0010573Y0023810D02*
X0007217D01*
X0005922Y0023360D02*
X0004046D01*
X0010364Y0022460D02*
X0009843D01*
X0010434Y0022910D02*
X0009903D01*
X0007221Y0021621D02*
X0007172D01*
X0010387Y0022010D02*
X0007210D01*
X0010339Y0021110D02*
X0007221D01*
X0010339Y0021560D02*
X0007221D01*
X0002196Y0026820D02*
Y0024530D01*
X0005796Y0021621D02*
X0005747D01*
X0001794Y0024582D02*
Y0024466D01*
X0010339Y0020660D02*
X0007221D01*
X0010346Y0020210D02*
X0007221D01*
X0001746Y0021602D02*
Y0021118D01*
Y0022602D02*
Y0022118D01*
X0000846Y0017968D02*
Y0016139D01*
X0001746Y0023138D02*
Y0023118D01*
X0001794Y0023138D02*
X0001738D01*
X0002822Y0021560D02*
X0001728D01*
X0000396Y0026820D02*
Y0024582D01*
X0001746Y0026820D02*
Y0024582D01*
X0005346Y0017897D02*
Y0016076D01*
X0004896Y0018386D02*
Y0016634D01*
X0005346Y0015884D02*
Y0015260D01*
X0000565Y0016139D02*
Y0015260D01*
X0012367Y0015710D02*
X0005298D01*
X0002646Y0023407D02*
Y0019346D01*
X0010746Y0026820D02*
Y0026112D01*
X0001924Y0019310D02*
X0001372D01*
X0001296Y0020174D02*
Y0019330D01*
X0000846Y0020174D02*
Y0019279D01*
X0002426Y0019310D02*
X0002372D01*
X0002426Y0019346D02*
Y0019290D01*
X0001746Y0020602D02*
Y0019223D01*
X0002922Y0023360D02*
X0002605D01*
X0003546Y0020150D02*
Y0019346D01*
X0003096Y0020258D02*
Y0019346D01*
X0000459Y0018410D02*
X0000396D01*
X0012367Y0022010D02*
X0011764D01*
X0003870Y0017915D02*
Y0017902D01*
X0004938Y0018860D02*
X0004771D01*
X0004890Y0018410D02*
X0004825D01*
X0005747Y0021110D02*
X0004185D01*
X0005747Y0021560D02*
X0004145D01*
X0005758Y0022010D02*
X0004210D01*
X0005748Y0022910D02*
X0004220D01*
X0005881Y0022460D02*
X0004086D01*
X0002646Y0026820D02*
Y0024273D01*
X0003996Y0026820D02*
Y0024413D01*
X0003546Y0026820D02*
Y0024618D01*
X0005850Y0024260D02*
X0004117D01*
X0005751Y0023810D02*
X0004217D01*
X0002748Y0022910D02*
X0001792D01*
X0003996Y0020354D02*
Y0019237D01*
X0007596Y0026820D02*
Y0015260D01*
X0003870Y0019346D02*
Y0019196D01*
X0009396Y0022098D02*
Y0015260D01*
X0009846Y0026820D02*
Y0023078D01*
X0009396Y0026820D02*
Y0023446D01*
X0008597Y0022460D02*
X0007086D01*
X0008537Y0022910D02*
X0007220D01*
X0010344Y0023360D02*
X0009593D01*
X0004446Y0017928D02*
Y0016644D01*
G01X0026478Y0026260D02*
G03X0026672Y0025760I0000742J0000000D01*
G01X0027962Y0023260D02*
G03X0027768Y0023760I0000742J0000000D01*
G01X0026478Y0025260D02*
G03X0026672Y0024760I0000742J0000000D01*
G01X0027962Y0021260D02*
G03X0027768Y0021760I0000742J0000000D01*
G01X0024148Y0017315D02*
G03X0023855Y0017251I0000000J0000707D01*
G01X0014813Y0021112D02*
G03X0014810Y0021178I0000737J0000000D01*
G03X0015400Y0020852I0000590J0000370D01*
G01X0013692Y0014591D02*
G03X0013399Y0014527I0000000J0000707D01*
G01X0017602Y0013900D02*
G03X0017546Y0014178I0000722J0000000D01*
G01X0027962Y0025260D02*
G03X0027768Y0025760I0000742J0000000D01*
G01X0026672D02*
G03X0026478Y0025260I0000548J0000500D01*
G01X0018596Y0022669D02*
G03X0019125Y0022907I0000000J0000707D01*
G01X0018596Y0024083D02*
G03X0018303Y0024019I0000000J0000707D01*
G01X0014764Y0023009D02*
G03X0014813Y0023272I0000688J0000263D01*
G01X0013339Y0021112D02*
G03X0013535Y0020612I0000737J0000000D01*
G01X0026478Y0018260D02*
G03X0026672Y0017760I0000742J0000000D01*
G01X0027962Y0017260D02*
G03X0027768Y0017760I0000742J0000000D01*
G01X0015400Y0022245D02*
G03X0014813Y0021923I0000000J0000697D01*
G01X0027220Y0016518D02*
G03X0027962Y0017260I0000000J0000742D01*
G01X0027768Y0017760D02*
G03X0027962Y0018260I0000548J0000500D01*
G01X0029478D02*
G03X0029672Y0017760I0000742J0000000D01*
G01X0027768Y0019760D02*
G03X0027962Y0020260I0000548J0000500D01*
Y0018260D02*
G03X0027768Y0018760I0000742J0000000D01*
G01X0029478Y0021260D02*
G03X0029672Y0020760I0000742J0000000D01*
G01X0026478Y0020260D02*
G03X0026672Y0019760I0000742J0000000D01*
G01X0027962Y0020260D02*
G03X0027768Y0020760I0000742J0000000D01*
G01X0020204Y0014427D02*
G03X0019911Y0014363I0000000J0000707D01*
G01X0026478Y0021260D02*
G03X0026672Y0020760I0000742J0000000D01*
G01X0027962Y0022260D02*
G03X0027768Y0022760I0000742J0000000D01*
G01X0026672Y0021760D02*
G03X0026478Y0021260I0000548J0000500D01*
G01X0030768Y0025760D02*
G03X0030962Y0026260I0000548J0000500D01*
G01X0029478D02*
G03X0029672Y0025760I0000742J0000000D01*
G01X0027962Y0019260D02*
G03X0027768Y0019760I0000742J0000000D01*
G01X0027962Y0024260D02*
G03X0027768Y0024760I0000742J0000000D01*
G01X0029654Y0026740D02*
G03X0029478Y0026260I0000566J0000480D01*
G01X0027962D02*
G03X0027785Y0026740I0000742J0000000D01*
G01X0014841Y0025468D02*
G03X0014104Y0026205I0000737J0000000D01*
G03X0013367Y0025468I0000000J0000737D01*
G03X0013416Y0025205I0000737J0000000D01*
G01X0013535Y0020612D02*
G03X0013339Y0020112I0000541J0000500D01*
G01X0014617Y0020612D02*
G03X0014813Y0021112I0000541J0000500D01*
G01X0026672Y0019760D02*
G03X0026478Y0019260I0000548J0000500D01*
G01X0013339Y0020112D02*
G03X0014076Y0019375I0000737J0000000D01*
G03X0014813Y0020112I0000000J0000737D01*
G01X0013473Y0021535D02*
G03X0013339Y0021112I0000603J0000423D01*
G01X0024148Y0015901D02*
G03X0024855Y0016608I0000000J0000707D01*
G03X0024148Y0017315I0000707J0000000D01*
G01X0019077Y0023893D02*
G03X0018596Y0024082I0000481J0000517D01*
G01X0013500Y0023731D02*
G03X0013339Y0023272I0000576J0000459D01*
G01X0017449Y0013456D02*
G03X0017602Y0013900I0000569J0000444D01*
G01X0020911Y0013720D02*
G03X0020204Y0014427I0000707J0000000D01*
G01X0026478Y0019260D02*
G03X0026672Y0018760I0000742J0000000D01*
G01X0020859Y0013456D02*
G03X0020910Y0013720I0000655J0000264D01*
G01X0016214Y0014178D02*
G03X0016158Y0013900I0000666J0000278D01*
G03X0016311Y0013456I0000722J0000000D01*
G01X0014399Y0013884D02*
G03X0013692Y0014591I0000707J0000000D01*
G01X0014254Y0013456D02*
G03X0014398Y0013884I0000562J0000428D01*
G01X0026478Y0023260D02*
G03X0026672Y0022760I0000742J0000000D01*
G01X0019592Y0022727D02*
G03X0020289Y0023424I0000000J0000697D01*
G03X0019592Y0024121I0000697J0000000D01*
G01X0019125Y0022907D02*
G03X0019592Y0022727I0000467J0000517D01*
G03X0020289Y0023424I0000000J0000697D01*
G03X0019592Y0024121I0000697J0000000D01*
G01X0019125Y0022907D02*
G03X0019592Y0022727I0000467J0000517D01*
G01X0015607Y0023972D02*
G03X0016304Y0023275I0000697J0000000D01*
G01X0016992Y0024083D02*
G03X0016304Y0024669I0000688J0000111D01*
G03X0015607Y0023972I0000000J0000697D01*
G01X0029323Y0014280D02*
G03X0030020Y0013583I0000697J0000000D01*
G03X0030717Y0014280I0000000J0000697D01*
G03X0030020Y0014977I0000697J0000000D01*
G03X0029323Y0014280I0000000J0000697D01*
G01X0015400Y0020851D02*
G03X0016097Y0021548I0000000J0000697D01*
G03X0015400Y0022245I0000697J0000000D01*
G01X0022463Y0024164D02*
G03X0023160Y0023467I0000697J0000000D01*
G03X0023857Y0024164I0000000J0000697D01*
G03X0023160Y0024861I0000697J0000000D01*
G03X0022463Y0024164I0000000J0000697D01*
G01X0023899Y0025064D02*
G03X0024596Y0024367I0000697J0000000D01*
G03X0025293Y0025064I0000000J0000697D01*
G03X0024596Y0025761I0000697J0000000D01*
G03X0023899Y0025064I0000000J0000697D01*
G01X0017163Y0018432D02*
G03X0017860Y0017735I0000697J0000000D01*
G03X0018557Y0018432I0000000J0000697D01*
G03X0017860Y0019129I0000697J0000000D01*
G03X0017163Y0018432I0000000J0000697D01*
G01X0025511Y0016780D02*
G03X0026208Y0016083I0000697J0000000D01*
Y0017477D02*
G03X0025511Y0016780I0000000J0000697D01*
G01X0024009Y0020760D02*
G03X0024716Y0020053I0000707J0000000D01*
G03X0025423Y0020760I0000000J0000707D01*
G03X0024716Y0021467I0000707J0000000D01*
G03X0024009Y0020760I0000000J0000707D01*
Y0022760D02*
G03X0024716Y0022053I0000707J0000000D01*
G03X0025423Y0022760I0000000J0000707D01*
G03X0024716Y0023467I0000707J0000000D01*
G03X0024009Y0022760I0000000J0000707D01*
G01X0013064Y0014810D02*
G03X0013229Y0015260I0000532J0000450D01*
G01X0027768Y0021760D02*
G03X0027962Y0022260I0000548J0000500D01*
G01X0030962Y0024260D02*
G03X0030768Y0024760I0000742J0000000D01*
G01X0029672D02*
G03X0029478Y0024260I0000548J0000500D01*
G01X0030962Y0026260D02*
G03X0030785Y0026740I0000742J0000000D01*
G01X0029478Y0023260D02*
G03X0029672Y0022760I0000742J0000000D01*
G01X0027768Y0023760D02*
G03X0027962Y0024260I0000548J0000500D01*
G01X0029672Y0023760D02*
G03X0029478Y0023260I0000548J0000500D01*
Y0022260D02*
G03X0029672Y0021760I0000742J0000000D01*
G01X0029478Y0024260D02*
G03X0029672Y0023760I0000742J0000000D01*
G01X0029478Y0025260D02*
G03X0029672Y0024760I0000742J0000000D01*
Y0021760D02*
G03X0029478Y0021260I0000548J0000500D01*
G01X0030768Y0019760D02*
G03X0030962Y0020260I0000548J0000500D01*
G01X0029478Y0017260D02*
G03X0030220Y0016518I0000742J0000000D01*
G03X0030962Y0017260I0000000J0000742D01*
G01X0030768Y0018760D02*
G03X0030962Y0019260I0000548J0000500D01*
G01X0026208Y0016083D02*
G03X0026881Y0016600I0000000J0000697D01*
G01X0027768Y0018760D02*
G03X0027962Y0019260I0000548J0000500D01*
G01X0029672Y0020760D02*
G03X0029478Y0020260I0000548J0000500D01*
G01X0026672Y0020760D02*
G03X0026478Y0020260I0000548J0000500D01*
G01X0027768Y0020760D02*
G03X0027962Y0021260I0000548J0000500D01*
G01X0030768Y0021760D02*
G03X0030962Y0022260I0000548J0000500D01*
G01X0030768Y0022760D02*
G03X0030962Y0023260I0000548J0000500D01*
G01X0029672Y0022760D02*
G03X0029478Y0022260I0000548J0000500D01*
G01X0027768Y0022760D02*
G03X0027962Y0023260I0000548J0000500D01*
G01X0030962D02*
G03X0030768Y0023760I0000742J0000000D01*
G01X0030962Y0022260D02*
G03X0030768Y0022760I0000742J0000000D01*
G01X0026672Y0024760D02*
G03X0026478Y0024260I0000548J0000500D01*
G01X0027768Y0024760D02*
G03X0027962Y0025260I0000548J0000500D01*
G01X0029672Y0025760D02*
G03X0029478Y0025260I0000548J0000500D01*
G01X0026478Y0024260D02*
G03X0026672Y0023760I0000742J0000000D01*
G01X0014792Y0025205D02*
G03X0014841Y0025468I0000688J0000263D01*
G01X0026478Y0022260D02*
G03X0026672Y0021760I0000742J0000000D01*
G01X0014813Y0023272D02*
G03X0014652Y0023731I0000737J0000000D01*
G01X0014813Y0020112D02*
G03X0014617Y0020612I0000737J0000000D01*
G01X0026495Y0017415D02*
G03X0026208Y0017477I0000287J0000635D01*
G01X0023855Y0015965D02*
G03X0024148Y0015901I0000293J0000643D01*
G01X0019592Y0024121D02*
G03X0019077Y0023893I0000000J0000697D01*
G01X0019592Y0024121D02*
G03X0019077Y0023893I0000000J0000697D01*
G01X0013339Y0023272D02*
G03X0013388Y0023009I0000737J0000000D01*
G01X0016304Y0023275D02*
G03X0016889Y0023594I0000000J0000697D01*
G01X0026672Y0023760D02*
G03X0026478Y0023260I0000548J0000500D01*
G01X0026654Y0026740D02*
G03X0026478Y0026260I0000566J0000480D01*
G01X0027768Y0025760D02*
G03X0027962Y0026260I0000548J0000500D01*
G01X0026672Y0022760D02*
G03X0026478Y0022260I0000548J0000500D01*
G01X0026672Y0017760D02*
G03X0026495Y0017415I0000548J0000500D01*
G01X0026881Y0016600D02*
G03X0027220Y0016518I0000339J0000660D01*
G01X0026672Y0018760D02*
G03X0026478Y0018260I0000548J0000500D01*
G01X0018303Y0022733D02*
G03X0018596Y0022669I0000293J0000643D01*
G01X0030962Y0025260D02*
G03X0030768Y0025760I0000742J0000000D01*
Y0024760D02*
G03X0030962Y0025260I0000548J0000500D01*
Y0021260D02*
G03X0030768Y0021760I0000742J0000000D01*
Y0023760D02*
G03X0030962Y0024260I0000548J0000500D01*
Y0020260D02*
G03X0030768Y0020760I0000742J0000000D01*
G03X0030962Y0021260I0000548J0000500D01*
Y0018260D02*
G03X0030768Y0018760I0000742J0000000D01*
G01X0029672Y0019760D02*
G03X0029478Y0019260I0000548J0000500D01*
G01X0030962Y0017260D02*
G03X0030768Y0017760I0000742J0000000D01*
G01X0029478Y0020260D02*
G03X0029672Y0019760I0000742J0000000D01*
G01X0030962Y0019260D02*
G03X0030768Y0019760I0000742J0000000D01*
Y0017760D02*
G03X0030962Y0018260I0000548J0000500D01*
G01X0029672Y0018760D02*
G03X0029478Y0018260I0000548J0000500D01*
Y0019260D02*
G03X0029672Y0018760I0000742J0000000D01*
Y0017760D02*
G03X0029478Y0017260I0000548J0000500D01*
G01X0001794Y0020860D02*
G03X0001592Y0021360I0000722J0000000D01*
G01X0010660Y0023880D02*
G03X0010339Y0023272I0000416J0000608D01*
G01X0004025Y0023384D02*
G03X0004221Y0023884I0000541J0000500D01*
G01X0002943Y0023384D02*
G03X0002747Y0022884I0000541J0000500D01*
G01X0011645Y0024968D02*
G03X0011841Y0025468I0000541J0000500D01*
G01X0005943Y0022384D02*
G03X0005747Y0021884I0000541J0000500D01*
G01X0011679Y0021849D02*
G03X0011813Y0022272I0000603J0000423D01*
G01X0010535Y0022772D02*
G03X0010339Y0022272I0000541J0000500D01*
G01X0001648Y0019144D02*
G03X0001148Y0019345I0000500J0000520D01*
G01X0005747Y0021884D02*
G03X0005796Y0021621I0000737J0000000D01*
G01X0002979Y0015432D02*
G03X0002272Y0016139I0000707J0000000D01*
G01X0002957Y0015260D02*
G03X0002978Y0015432I0000685J0000172D01*
G01X0002272Y0016139D02*
G03X0001979Y0016075I0000000J0000707D01*
G01X0010388Y0020375D02*
G03X0010339Y0020112I0000688J0000263D01*
G01X0005873Y0019207D02*
G03X0005580Y0019271I0000293J0000643D01*
G01X0002943Y0021384D02*
G03X0002747Y0020884I0000541J0000500D01*
G01X0011841Y0024468D02*
G03X0011645Y0024968I0000737J0000000D01*
G01X0010367Y0025468D02*
G03X0010563Y0024968I0000737J0000000D01*
G01X0011841Y0025468D02*
G03X0011104Y0026205I0000737J0000000D01*
G03X0010367Y0025468I0000000J0000737D01*
G01X0001592Y0021360D02*
G03X0001793Y0021860I0000520J0000500D01*
G01X0010339Y0022272D02*
G03X0010473Y0021849I0000737J0000000D01*
G01X0011813Y0022272D02*
G03X0011617Y0022772I0000737J0000000D01*
G01X0010339Y0023272D02*
G03X0010535Y0022772I0000737J0000000D01*
G01X0011813Y0023272D02*
G03X0011520Y0023860I0000737J0000000D01*
G01X0010339Y0020112D02*
G03X0011076Y0019375I0000737J0000000D01*
G03X0011813Y0020112I0000000J0000737D01*
G03X0011764Y0020375I0000737J0000000D01*
G01X0011617Y0022772D02*
G03X0011813Y0023272I0000541J0000500D01*
G01X0004873Y0018564D02*
G03X0005580Y0017857I0000707J0000000D01*
G03X0005873Y0017921I0000000J0000707D01*
G01X0005580Y0019271D02*
G03X0004873Y0018564I0000000J0000707D01*
G01X0007221Y0023884D02*
G03X0006484Y0024621I0000737J0000000D01*
G03X0005747Y0023884I0000000J0000737D01*
G01X0007221Y0022884D02*
G03X0007025Y0023384I0000737J0000000D01*
G01X0007172Y0021621D02*
G03X0007221Y0021884I0000688J0000263D01*
G01X0003484Y0024621D02*
G03X0002765Y0024046I0000000J0000737D01*
G01X0005747Y0023884D02*
G03X0005943Y0023384I0000737J0000000D01*
G01X0005747Y0022884D02*
G03X0005943Y0022384I0000737J0000000D01*
G01X0001072Y0020138D02*
G03X0001794Y0020860I0000000J0000722D01*
Y0021860D02*
G03X0001592Y0022360I0000722J0000000D01*
G01X0002100Y0024537D02*
G03X0001794Y0024466I0000000J0000697D01*
Y0022860D02*
G03X0001738Y0023138I0000722J0000000D01*
G01X0001592Y0022360D02*
G03X0001793Y0022860I0000520J0000500D01*
G01X0010367Y0024468D02*
G03X0010660Y0023880I0000737J0000000D01*
G01X0002765Y0024046D02*
G03X0002100Y0024536I0000665J0000206D01*
Y0023143D02*
G03X0002777Y0023676I0000000J0000697D01*
G01X0001794Y0023214D02*
G03X0002100Y0023143I0000306J0000626D01*
G01X0000426Y0018624D02*
G03X0001148Y0017902I0000722J0000000D01*
G03X0001648Y0018103I0000000J0000722D01*
G01X0001148Y0019346D02*
G03X0000426Y0018624I0000000J0000722D01*
G01X0004144Y0019253D02*
G03X0003870Y0019196I0000000J0000697D01*
G01X0002148Y0017902D02*
G03X0002426Y0017958I0000000J0000722D01*
G01X0001648Y0018103D02*
G03X0002148Y0017902I0000500J0000521D01*
G01X0002747Y0020884D02*
G03X0003484Y0020147I0000737J0000000D01*
G03X0004221Y0020884I0000000J0000737D01*
G03X0004025Y0021384I0000737J0000000D01*
G01X0002747Y0021884D02*
G03X0002943Y0021384I0000737J0000000D01*
G01X0004221Y0021884D02*
G03X0004025Y0022384I0000737J0000000D01*
G01X0002747Y0022884D02*
G03X0002943Y0022384I0000737J0000000D01*
G01X0002765Y0024046D02*
G03X0002100Y0024536I0000665J0000206D01*
G01X0004221Y0022884D02*
G03X0004025Y0023384I0000737J0000000D01*
G01X0002943Y0022384D02*
G03X0002747Y0021884I0000541J0000500D01*
G01X0004221Y0023884D02*
G03X0003484Y0024621I0000737J0000000D01*
G01X0002777Y0023676D02*
G03X0002943Y0023384I0000707J0000208D01*
G01X0007221Y0021884D02*
G03X0007025Y0022384I0000737J0000000D01*
G01X0003959Y0015980D02*
G03X0004656Y0015283I0000697J0000000D01*
G03X0005353Y0015980I0000000J0000697D01*
G03X0004656Y0016677I0000697J0000000D01*
G03X0003959Y0015980I0000000J0000697D01*
G01X0004144Y0017859D02*
G03X0004841Y0018556I0000000J0000697D01*
G03X0004144Y0019253I0000697J0000000D01*
G01X0003870Y0017915D02*
G03X0004144Y0017859I0000274J0000641D01*
G01X0008523Y0022772D02*
G03X0009220Y0022075I0000697J0000000D01*
G03X0009917Y0022772I0000000J0000697D01*
G03X0009220Y0023469I0000697J0000000D01*
G03X0008523Y0022772I0000000J0000697D01*
G03X0009220Y0022075I0000697J0000000D01*
G03X0009917Y0022772I0000000J0000697D01*
G03X0009220Y0023469I0000697J0000000D01*
G03X0008523Y0022772I0000000J0000697D01*
G01X0003959Y0015980D02*
G03X0004656Y0015283I0000697J0000000D01*
G03X0005353Y0015980I0000000J0000697D01*
G03X0004656Y0016677I0000697J0000000D01*
G03X0003959Y0015980I0000000J0000697D01*
G03X0004656Y0015283I0000697J0000000D01*
G03X0005353Y0015980I0000000J0000697D01*
G03X0004656Y0016677I0000697J0000000D01*
G03X0003959Y0015980I0000000J0000697D01*
G01X0004025Y0021384D02*
G03X0004221Y0021884I0000541J0000500D01*
G01X0002100Y0023143D02*
G03X0002777Y0023676I0000000J0000697D01*
G01X0001794Y0023214D02*
G03X0002100Y0023143I0000306J0000626D01*
Y0024537D02*
G03X0001794Y0024466I0000000J0000697D01*
G01X0010563Y0024968D02*
G03X0010367Y0024468I0000541J0000500D01*
G01X0011520Y0023860D02*
G03X0011841Y0024468I0000416J0000608D01*
G01X0012372Y0026820D02*
G03X0012367Y0026740I0000692J0000080D01*
G01X0000396Y0020607D02*
G03X0001072Y0020138I0000676J0000253D01*
G01X0004025Y0022384D02*
G03X0004221Y0022884I0000541J0000500D01*
G01X0002148Y0019346D02*
G03X0001648Y0019144I0000000J0000722D01*
G01X0005943Y0023384D02*
G03X0005747Y0022884I0000541J0000500D01*
G01X0007025Y0023384D02*
G03X0007221Y0023884I0000541J0000500D01*
G01X0007025Y0022384D02*
G03X0007221Y0022884I0000541J0000500D01*
G01X0002426Y0019290D02*
G03X0002148Y0019346I0000278J0000666D01*
G54D11*
X0034084Y0007048D03*
X0032084D03*
X0024716Y0022760D03*
Y0020760D03*
X0024148Y0016608D03*
X0015196Y0009840D03*
X0018596Y0023376D03*
X0005580Y0018564D03*
X0020204Y0013720D03*
X0013692Y0013884D03*
X0002272Y0015432D03*
G54D12*
X0023148Y0016608D03*
X0014196Y0009840D03*
X0017596Y0023376D03*
X0006580Y0018564D03*
X0019204Y0013720D03*
X0012692Y0013884D03*
X0001272Y0015432D03*
G54D13*
X0006484Y0021884D03*
Y0022884D03*
Y0023884D03*
X0003484D03*
Y0022884D03*
Y0021884D03*
Y0020884D03*
X0014104Y0025468D03*
X0011104D03*
Y0024468D03*
X0014076Y0023272D03*
X0011076D03*
Y0022272D03*
Y0020112D03*
X0014076D03*
Y0021112D03*
G54D14*
X0006484Y0020884D03*
X0014104Y0024468D03*
X0014076Y0022272D03*
X0011076Y0021112D03*
G54D15*
X0016880Y0013900D03*
Y0012900D03*
X0002148Y0018624D03*
X0001148D03*
X0044344Y0001180D03*
X0045344D03*
X0046344D03*
X0010700Y0013360D03*
X0001072Y0022860D03*
Y0021860D03*
Y0020860D03*
G54D16*
X0016880Y0014900D03*
X0003148Y0018624D03*
X0043344Y0001180D03*
X0010700Y0014360D03*
X0001072Y0023860D03*
G54D18*
X0031568Y0008728D03*
X0032568D03*
X0033568D03*
X0034568D03*
X0035568D03*
X0036568D03*
X0037568D03*
X0038568D03*
Y0011728D03*
X0037568D03*
X0036568D03*
X0035568D03*
X0034568D03*
X0033568D03*
X0032568D03*
X0031568D03*
X0027220Y0026260D03*
Y0025260D03*
Y0024260D03*
Y0023260D03*
Y0022260D03*
Y0021260D03*
Y0020260D03*
Y0019260D03*
Y0018260D03*
Y0017260D03*
X0030220D03*
Y0018260D03*
Y0019260D03*
Y0020260D03*
Y0021260D03*
Y0022260D03*
Y0023260D03*
Y0024260D03*
Y0025260D03*
Y0026260D03*
G54D21*
X0042624Y0012060D03*
X0044708Y0006220D03*
X0040832Y0008272D03*
X0038536Y0006900D03*
X0019592Y0023424D03*
X0016304Y0023972D03*
X0030020Y0014280D03*
X0015400Y0021548D03*
X0023160Y0024164D03*
X0024596Y0025064D03*
X0017860Y0018432D03*
X0004144Y0018556D03*
X0009220Y0022772D03*
X0026208Y0016780D03*
X0004656Y0015980D03*
X0002100Y0023840D03*
M02*
