*
G04 Mass Parameters ***
*
G04 Image ***
*
%INC:\USERS\CHITA\ONEDRIVE\DESKTOP\NEW FOLDER\VANCA RAFAEL MARIAN\VANCA_RAFAEL_MARIAN\LABORATOR1.ASB*%
%ICAS*%
%MOIN*%
%IPPOS*%
%ASAXBY*%
G74*%FSLAN2X34Y34*%
*
G04 Aperture Definitions ***
*
%ADD10R,0.0500X0.0500*%
%ADD11C,0.0520*%
%ADD12R,0.0520X0.0520*%
%ADD13C,0.0580*%
%ADD14R,0.0580X0.0580*%
%ADD15C,0.0550*%
%ADD16R,0.0550X0.0550*%
%ADD17R,0.0400X0.0480*%
%ADD18C,0.0590*%
%ADD19C,0.0100*%
%ADD20C,0.0120*%
%ADD21C,0.0500*%
%ADD22C,0.0197*%
%ADD23C,0.0500*%
%ADD24C,0.0650*%
%ADD25C,0.0550*%
%ADD26C,0.0080*%
%ADD27C,0.0060*%
*
G04 Plot Data ***
*
G54D23*
G01X0000052Y0000020D02*
X0047244Y0000000D01*
Y0027560D01*
X0000000Y0027572D01*
Y-0000032D01*
X0000052Y0000020D01*
G54D11*
X0034084Y0007048D03*
X0032084D03*
X0024716Y0022760D03*
Y0020760D03*
X0024148Y0016608D03*
X0015196Y0009840D03*
X0018596Y0023376D03*
X0005580Y0018564D03*
X0020204Y0013720D03*
X0013692Y0013884D03*
X0002272Y0015432D03*
G54D12*
X0023148Y0016608D03*
X0014196Y0009840D03*
X0017596Y0023376D03*
X0006580Y0018564D03*
X0019204Y0013720D03*
X0012692Y0013884D03*
X0001272Y0015432D03*
G54D13*
X0006484Y0021884D03*
Y0022884D03*
Y0023884D03*
X0003484D03*
Y0022884D03*
Y0021884D03*
Y0020884D03*
X0014104Y0025468D03*
X0011104D03*
Y0024468D03*
X0014076Y0023272D03*
X0011076D03*
Y0022272D03*
Y0020112D03*
X0014076D03*
Y0021112D03*
G54D14*
X0006484Y0020884D03*
X0014104Y0024468D03*
X0014076Y0022272D03*
X0011076Y0021112D03*
G54D15*
X0016880Y0013900D03*
Y0012900D03*
X0002148Y0018624D03*
X0001148D03*
X0044344Y0001180D03*
X0045344D03*
X0046344D03*
X0010700Y0013360D03*
X0001072Y0022860D03*
Y0021860D03*
Y0020860D03*
G54D16*
X0016880Y0014900D03*
X0003148Y0018624D03*
X0043344Y0001180D03*
X0010700Y0014360D03*
X0001072Y0023860D03*
M02*
