*
G04 Mass Parameters ***
*
G04 Image ***
*
%INC:\USERS\CHITA\ONEDRIVE\DESKTOP\NEW FOLDER\VANCA RAFAEL MARIAN\VANCA_RAFAEL_MARIAN\LABORATOR1.TOP*%
%ICAS*%
%MOIN*%
%IPPOS*%
%ASAXBY*%
G74*%FSLAN2X34Y34*%
*
G04 Aperture Definitions ***
*
%ADD10R,0.0500X0.0500*%
%ADD11C,0.0520*%
%ADD12R,0.0520X0.0520*%
%ADD13C,0.0580*%
%ADD14R,0.0580X0.0580*%
%ADD15C,0.0550*%
%ADD16R,0.0550X0.0550*%
%ADD17R,0.0400X0.0480*%
%ADD18C,0.0590*%
%ADD19C,0.0100*%
%ADD20C,0.0120*%
%ADD21C,0.0500*%
*
G04 Plot Data ***
*
G54D19*
G01X0042192Y0002479D02*
Y0000532D01*
X0041441Y0012412D02*
X0039686D01*
X0044009Y0002445D02*
X0042332D01*
X0041672Y0006562D02*
X0040743D01*
X0039132Y0006730D02*
Y0005985D01*
X0041441Y0012571D02*
Y0010769D01*
X0029713Y0005392D02*
X0020185D01*
X0039289Y0006022D02*
X0038825D01*
X0029713Y0009622D02*
X0020185D01*
X0040662Y0007805D02*
Y0007067D01*
X0040335Y0008272D02*
X0039458D01*
X0040842Y0007775D02*
Y0005985D01*
X0042236Y0007102D02*
X0040628D01*
X0040932Y0007785D02*
Y0005703D01*
X0041022Y0007813D02*
Y0005703D01*
X0040338Y0004312D02*
X0030327D01*
X0041292Y0008085D02*
Y0005703D01*
X0039708Y0004942D02*
X0034989D01*
X0040525Y0009204D02*
Y0008663D01*
X0036991Y0005302D02*
X0034989D01*
X0039099Y0005392D02*
X0038825D01*
X0034095Y0008992D02*
X0034041D01*
X0033095D02*
X0033041D01*
X0036969Y0006543D02*
Y0005916D01*
X0039099Y0005482D02*
X0038825D01*
X0039099Y0005662D02*
X0038825D01*
X0039099Y0005752D02*
X0038825D01*
X0039099Y0005842D02*
X0038825D01*
X0037831Y0006201D02*
X0037583D01*
X0037773Y0006543D02*
X0037583D01*
X0037329Y0011242D02*
X0036807D01*
X0037198Y0011332D02*
X0036937D01*
X0037121Y0011422D02*
X0037015D01*
X0029713Y0005122D02*
X0020185D01*
X0033155Y0005032D02*
X0032861D01*
X0033305Y0008092D02*
X0032875D01*
X0033626Y0006832D02*
X0032542D01*
X0032562Y0006880D02*
Y0005893D01*
X0033155Y0004942D02*
X0032861D01*
X0034185Y0006292D02*
X0032391D01*
X0031662Y0006767D02*
Y0005893D01*
X0037062Y0005207D02*
Y0000532D01*
X0032391Y0006645D02*
Y0005893D01*
X0033416Y0007282D02*
X0032752D01*
X0036072Y0008510D02*
Y0007537D01*
X0036252Y0011288D02*
Y0009168D01*
X0036342Y0011236D02*
Y0009220D01*
X0036432Y0011204D02*
Y0009252D01*
X0036522Y0011188D02*
Y0009268D01*
X0036612Y0011188D02*
Y0009268D01*
X0036702Y0011203D02*
Y0009253D01*
X0036792Y0011235D02*
Y0009221D01*
X0029713Y0006922D02*
X0020185D01*
X0039222Y0006640D02*
Y0005985D01*
X0029713Y0007192D02*
X0020185D01*
X0036972Y0011367D02*
Y0009089D01*
X0038052Y0006593D02*
Y0006201D01*
X0038145Y0006593D02*
X0037773D01*
X0040752Y0007782D02*
Y0005985D01*
X0041742Y0006425D02*
Y0005893D01*
X0037242Y0011295D02*
Y0009160D01*
X0043406Y0008272D02*
X0041329D01*
X0039289Y0006573D02*
Y0005985D01*
X0032202Y0008329D02*
Y0007600D01*
X0034152Y0006546D02*
X0034185Y0006513D01*
X0029713Y0011512D02*
X0020185D01*
X0029713Y0011422D02*
X0020185D01*
X0034329Y0011242D02*
X0033807D01*
X0029713Y0011692D02*
X0020185D01*
X0029713Y0011782D02*
X0020185D01*
X0041251Y0012761D02*
X0040035D01*
X0037332Y0011240D02*
Y0009215D01*
X0040369Y0008452D02*
X0039278D01*
X0036129Y0008272D02*
X0035860D01*
X0034102Y0008452D02*
X0034034D01*
X0036129Y0008362D02*
X0035967D01*
X0033912Y0011309D02*
Y0009146D01*
X0035275Y0008272D02*
X0034860D01*
X0033305Y0007912D02*
X0032875D01*
X0034275Y0008272D02*
X0033919D01*
X0033912Y0008309D02*
Y0007654D01*
X0029713Y0008452D02*
X0020185D01*
X0034258Y0009172D02*
X0033878D01*
X0037583Y0006543D02*
Y0006201D01*
X0037782Y0006593D02*
Y0006201D01*
X0035939Y0007537D02*
Y0006543D01*
X0036933D02*
X0036779D01*
X0032095Y0008992D02*
X0032041D01*
X0039099Y0005932D02*
X0038825D01*
Y0006201D02*
Y0005207D01*
X0037985D01*
X0039099Y0005302D02*
X0038825D01*
X0037985Y0005207D02*
X0037831D01*
X0036991D01*
X0028851Y0002903D02*
X0027669D01*
X0041868Y0002782D02*
X0030685D01*
Y0003093D02*
Y0002099D01*
X0029845D01*
X0041508Y0003142D02*
X0030299D01*
X0029845Y0002099D02*
X0029691D01*
X0028851D01*
X0045522Y0000689D02*
Y0000532D01*
X0042822Y0000712D02*
X0027481D01*
X0043866Y0001702D02*
X0042822D01*
Y0000658D01*
X0043866D02*
X0042822D01*
X0033155Y0005122D02*
X0032861D01*
Y0005893D02*
Y0004899D01*
X0032021D01*
X0031027Y0005893D02*
Y0004899D01*
X0032742Y0007272D02*
Y0005893D01*
X0032021Y0004899D02*
X0031867D01*
X0031027D01*
X0033552Y0004911D02*
Y0000532D01*
X0033372Y0007329D02*
Y0005905D01*
X0034989D02*
Y0004911D01*
X0034149D01*
X0033155Y0005905D02*
Y0004911D01*
X0034092D02*
Y0000532D01*
X0029713Y0003862D02*
X0020185D01*
X0034149Y0004911D02*
X0033995D01*
X0041562Y0009500D02*
Y0005703D01*
X0041472Y0009410D02*
Y0005703D01*
X0044237Y0010085D02*
X0044331Y0009991D01*
X0041832Y0006334D02*
Y0005893D01*
X0044331Y0009892D02*
X0043193D01*
X0044262Y0010060D02*
Y0009160D01*
X0044331Y0009585D02*
Y0009431D01*
X0039099Y0005985D02*
Y0004991D01*
X0029713Y0005482D02*
X0020185D01*
X0041112Y0007862D02*
Y0005703D01*
X0039659Y0004991D02*
X0039099D01*
X0041742Y0009680D02*
Y0006831D01*
X0029713Y0010072D02*
X0020185D01*
X0041359Y0010769D02*
Y0010165D01*
X0041837Y0009775D02*
X0041139Y0009077D01*
X0041382Y0012571D02*
Y0010769D01*
X0044331Y0009991D02*
Y0009585D01*
X0040068Y0004582D02*
X0030327D01*
X0026082Y0001939D02*
Y0001461D01*
X0026172Y0012996D02*
Y0002933D01*
X0028851Y0002289D02*
Y0002099D01*
X0027669Y0001939D02*
X0026829D01*
X0025835Y0002933D02*
Y0001939D01*
X0027522Y0012996D02*
Y0002933D01*
X0026829Y0001939D02*
X0026675D01*
X0022061Y0012847D02*
X0021067D01*
Y0012996D02*
Y0012847D01*
X0026487Y0001461D02*
X0025647D01*
X0027612Y0001939D02*
Y0000532D01*
X0026082Y0012996D02*
Y0002933D01*
X0026622Y0001939D02*
Y0001461D01*
X0038172Y0006562D02*
X0037773D01*
X0022122Y0012996D02*
Y0003677D01*
X0022752Y0012996D02*
Y0003677D01*
X0023349D02*
Y0002683D01*
X0025835Y0002782D02*
X0023349D01*
X0021515Y0003677D02*
Y0002683D01*
X0022482D02*
Y0000532D01*
X0022509Y0002683D02*
X0022355D01*
X0022482Y0012996D02*
Y0003677D01*
X0025647Y0000532D02*
X0020185D01*
X0027481Y0001461D02*
X0026641D01*
X0021582Y0012847D02*
Y0003677D01*
X0046744Y0000845D02*
Y0000532D01*
X0046332Y0000658D02*
Y0000532D01*
X0046242Y0000668D02*
Y0000532D01*
X0046152Y0000695D02*
Y0000532D01*
X0046062Y0000741D02*
Y0000532D01*
X0044037Y0001612D02*
X0043866D01*
X0046512Y0000686D02*
Y0000532D01*
X0045702Y0000800D02*
Y0000532D01*
X0041382Y0003268D02*
Y0000532D01*
X0043452Y0000658D02*
Y0000532D01*
X0045882Y0000938D02*
Y0000532D01*
X0045342Y0000658D02*
Y0000532D01*
X0045162Y0000691D02*
Y0000532D01*
X0045072Y0000735D02*
Y0000532D01*
X0043866Y0000972D02*
Y0000658D01*
X0044802Y0000930D02*
Y0000532D01*
X0044622Y0000738D02*
Y0000532D01*
X0044892Y0000919D02*
Y0000532D01*
X0044352Y0000658D02*
Y0000532D01*
X0044262Y0000665D02*
Y0000532D01*
X0044172Y0000687D02*
Y0000532D01*
X0044082Y0000729D02*
Y0000532D01*
X0044712Y0000810D02*
Y0000532D01*
X0043812Y0000658D02*
Y0000532D01*
X0043632Y0000658D02*
Y0000532D01*
X0044442Y0000667D02*
Y0000532D01*
X0029713Y0010972D02*
X0020185D01*
X0043902Y0000903D02*
Y0000532D01*
X0043362Y0000658D02*
Y0000532D01*
X0043272Y0000658D02*
Y0000532D01*
X0042822Y0002445D02*
Y0000532D01*
X0043092Y0000658D02*
Y0000532D01*
X0042912Y0002445D02*
Y0001702D01*
X0043182Y0000658D02*
Y0000532D01*
X0042552Y0002445D02*
Y0000532D01*
X0042462Y0002445D02*
Y0000532D01*
X0042372Y0002445D02*
Y0000532D01*
X0042102Y0002548D02*
Y0000532D01*
X0042012Y0002638D02*
Y0000532D01*
X0041441Y0012571D02*
X0041251D01*
X0041832Y0002818D02*
Y0000532D01*
X0043542Y0000658D02*
Y0000532D01*
X0041292Y0003358D02*
Y0000532D01*
X0041202Y0003448D02*
Y0000532D01*
X0041022Y0003628D02*
Y0000532D01*
X0040932Y0003718D02*
Y0000532D01*
X0040752Y0003898D02*
Y0000532D01*
X0040662Y0003988D02*
Y0000532D01*
X0040572Y0004078D02*
Y0000532D01*
X0040482Y0004168D02*
Y0000532D01*
X0040392Y0004258D02*
Y0000532D01*
X0039659Y0004991D02*
X0042113Y0002537D01*
X0040032Y0004618D02*
Y0000532D01*
X0039942Y0004708D02*
Y0000532D01*
X0039852Y0004798D02*
Y0000532D01*
X0039672Y0004978D02*
Y0000532D01*
X0039582Y0004991D02*
Y0000532D01*
X0039492Y0004991D02*
Y0000532D01*
X0039402Y0004991D02*
Y0000532D01*
X0039312Y0004991D02*
Y0000532D01*
X0039042Y0006820D02*
Y0000532D01*
X0039132Y0004991D02*
Y0000532D01*
X0038862Y0006525D02*
Y0000532D01*
X0038772Y0005207D02*
Y0000532D01*
X0038682Y0005207D02*
Y0000532D01*
X0038592Y0005207D02*
Y0000532D01*
X0038502Y0005207D02*
Y0000532D01*
X0038412Y0005207D02*
Y0000532D01*
X0038322Y0005207D02*
Y0000532D01*
X0038232Y0005207D02*
Y0000532D01*
X0037985Y0006201D02*
X0037831D01*
X0038142Y0005207D02*
Y0000532D01*
X0038052Y0005207D02*
Y0000532D01*
X0037872Y0005207D02*
Y0000532D01*
X0037782Y0005207D02*
Y0000532D01*
X0037692Y0005207D02*
Y0000532D01*
X0037602Y0005207D02*
Y0000532D01*
X0037512Y0005207D02*
Y0000532D01*
X0037422Y0005207D02*
Y0000532D01*
X0037332Y0005207D02*
Y0000532D01*
X0037242Y0005207D02*
Y0000532D01*
X0036972Y0005875D02*
Y0000532D01*
X0036792Y0006543D02*
Y0000532D01*
X0036702Y0006543D02*
Y0000532D01*
X0036612Y0006543D02*
Y0000532D01*
X0036522Y0006543D02*
Y0000532D01*
X0036432Y0006543D02*
Y0000532D01*
X0036342Y0006543D02*
Y0000532D01*
X0036252Y0006543D02*
Y0000532D01*
X0036162Y0006543D02*
Y0000532D01*
X0035982Y0006543D02*
Y0000532D01*
X0035892Y0008294D02*
Y0000532D01*
X0035802Y0008239D02*
Y0000532D01*
X0035712Y0008206D02*
Y0000532D01*
X0035622Y0008189D02*
Y0000532D01*
X0035532Y0008187D02*
Y0000532D01*
X0035442Y0008201D02*
Y0000532D01*
X0035352Y0008231D02*
Y0000532D01*
X0035982Y0008379D02*
Y0007537D01*
X0035262Y0008281D02*
Y0000532D01*
X0034992Y0008391D02*
Y0000532D01*
X0034902Y0004911D02*
Y0000532D01*
X0034812Y0004911D02*
Y0000532D01*
X0034722Y0004911D02*
Y0000532D01*
X0034632Y0004911D02*
Y0000532D01*
X0034542Y0004911D02*
Y0000532D01*
X0034452Y0004911D02*
Y0000532D01*
X0034362Y0004911D02*
Y0000532D01*
X0036969Y0006022D02*
X0034799D01*
X0034272Y0004911D02*
Y0000532D01*
X0034182Y0004911D02*
Y0000532D01*
X0034002Y0004911D02*
Y0000532D01*
X0033912Y0004911D02*
Y0000532D01*
X0033822Y0004911D02*
Y0000532D01*
X0033732Y0004911D02*
Y0000532D01*
X0033642Y0004911D02*
Y0000532D01*
X0036969Y0006202D02*
X0034799D01*
X0027481Y0001461D02*
Y0000532D01*
X0033372Y0004911D02*
Y0000532D01*
X0033192Y0008338D02*
Y0005905D01*
X0033102Y0008452D02*
Y0000532D01*
X0042732Y0002445D02*
Y0000532D01*
X0032922Y0008318D02*
Y0000532D01*
X0032832Y0004899D02*
Y0000532D01*
X0032742Y0004899D02*
Y0000532D01*
X0032652Y0004899D02*
Y0000532D01*
X0032562Y0004899D02*
Y0000532D01*
X0032472Y0004899D02*
Y0000532D01*
X0032382Y0004899D02*
Y0000532D01*
X0032292Y0004899D02*
Y0000532D01*
X0032202Y0004899D02*
Y0000532D01*
X0032861Y0005893D02*
X0032391D01*
X0032112Y0004899D02*
Y0000532D01*
X0031932Y0004899D02*
Y0000532D01*
X0031842Y0004899D02*
Y0000532D01*
X0031752Y0004899D02*
Y0000532D01*
X0031662Y0004899D02*
Y0000532D01*
X0031572Y0004899D02*
Y0000532D01*
X0031482Y0004899D02*
Y0000532D01*
X0031392Y0004899D02*
Y0000532D01*
X0031302Y0004899D02*
Y0000532D01*
X0031122Y0008420D02*
Y0005893D01*
X0031032Y0008650D02*
Y0000532D01*
X0030942Y0012996D02*
Y0000532D01*
X0030852Y0012996D02*
Y0000532D01*
X0029411Y0003093D02*
X0028851D01*
X0030672Y0012996D02*
Y0003093D01*
X0029713Y0012996D02*
Y0003395D01*
X0030492Y0012996D02*
Y0003093D01*
X0028332Y0002289D02*
Y0000532D01*
X0030402Y0002099D02*
Y0000532D01*
X0030762Y0012996D02*
Y0000532D01*
X0030222Y0002099D02*
Y0000532D01*
X0030132Y0002099D02*
Y0000532D01*
X0030042Y0002099D02*
Y0000532D01*
X0027252Y0012996D02*
Y0002933D01*
X0041418Y0003232D02*
X0030324D01*
X0030402Y0012996D02*
Y0003093D01*
X0029502Y0012996D02*
Y0003184D01*
X0029412Y0012996D02*
Y0003094D01*
X0027612Y0012996D02*
Y0002933D01*
X0029862Y0002099D02*
Y0000532D01*
X0029232Y0012996D02*
Y0003093D01*
X0029142Y0012996D02*
Y0003093D01*
X0029052Y0012996D02*
Y0003093D01*
X0028962Y0012996D02*
Y0003093D01*
X0027669Y0002289D02*
Y0001939D01*
X0028782Y0012996D02*
Y0002903D01*
X0028692Y0012996D02*
Y0002903D01*
X0028602Y0012996D02*
Y0002903D01*
X0029772Y0002099D02*
Y0000532D01*
X0028422Y0012996D02*
Y0002903D01*
X0029322Y0012996D02*
Y0003093D01*
X0028872Y0002099D02*
Y0000532D01*
X0028152Y0012996D02*
Y0002903D01*
X0028062Y0012996D02*
Y0002903D01*
X0027972Y0012996D02*
Y0002903D01*
X0027882Y0012996D02*
Y0002903D01*
X0027792Y0012996D02*
Y0002903D01*
X0028242Y0012996D02*
Y0002903D01*
X0021067Y0012952D02*
X0020185D01*
X0044037Y0002152D02*
X0030685D01*
X0027432Y0001939D02*
Y0001461D01*
X0027342Y0001939D02*
Y0001461D01*
X0027252Y0001939D02*
Y0001461D01*
X0027162Y0001939D02*
Y0001461D01*
X0027072Y0001939D02*
Y0001461D01*
X0026982Y0001939D02*
Y0001461D01*
X0026641D02*
X0026487D01*
X0029713Y0003682D02*
X0020185D01*
X0046744Y0000532D02*
X0027481D01*
X0025835Y0002062D02*
X0020185D01*
X0028332Y0012996D02*
Y0002903D01*
X0026442Y0001939D02*
Y0001461D01*
X0026352Y0001939D02*
Y0001461D01*
X0026262Y0001939D02*
Y0001461D01*
X0026172Y0001939D02*
Y0001461D01*
X0027669Y0002933D02*
X0026829D01*
X0025992Y0001939D02*
Y0001461D01*
X0021582Y0002683D02*
Y0000532D01*
X0025902Y0012996D02*
Y0002933D01*
X0025632Y0012996D02*
Y0000532D01*
X0025542Y0012996D02*
Y0000532D01*
X0025452Y0012996D02*
Y0000532D01*
X0025362Y0012996D02*
Y0000532D01*
X0025272Y0012996D02*
Y0000532D01*
X0025182Y0012996D02*
Y0000532D01*
X0025092Y0012996D02*
Y0000532D01*
X0025002Y0012996D02*
Y0000532D01*
X0024912Y0012996D02*
Y0000532D01*
X0024822Y0012996D02*
Y0000532D01*
X0024732Y0012996D02*
Y0000532D01*
X0024642Y0012996D02*
Y0000532D01*
X0024552Y0012996D02*
Y0000532D01*
X0024462Y0012996D02*
Y0000532D01*
X0024372Y0012996D02*
Y0000532D01*
X0024282Y0012996D02*
Y0000532D01*
X0024192Y0012996D02*
Y0000532D01*
X0024102Y0012996D02*
Y0000532D01*
X0024012Y0012996D02*
Y0000532D01*
X0023922Y0012996D02*
Y0000532D01*
X0023832Y0012996D02*
Y0000532D01*
X0023742Y0012996D02*
Y0000532D01*
X0023652Y0012996D02*
Y0000532D01*
X0023562Y0012996D02*
Y0000532D01*
X0023472Y0012996D02*
Y0000532D01*
X0022355Y0002683D02*
X0021515D01*
X0023382Y0012996D02*
Y0000532D01*
X0023292Y0002683D02*
Y0000532D01*
X0023202Y0002683D02*
Y0000532D01*
X0023112Y0002683D02*
Y0000532D01*
X0023022Y0002683D02*
Y0000532D01*
X0022932Y0002683D02*
Y0000532D01*
X0022842Y0002683D02*
Y0000532D01*
X0022752Y0002683D02*
Y0000532D01*
X0023349Y0002683D02*
X0022509D01*
Y0003677D02*
X0022355D01*
X0026352Y0012996D02*
Y0002933D01*
X0022392Y0002683D02*
Y0000532D01*
X0022302Y0002683D02*
Y0000532D01*
X0022212Y0002683D02*
Y0000532D01*
X0022122Y0002683D02*
Y0000532D01*
X0022032Y0002683D02*
Y0000532D01*
X0021942Y0002683D02*
Y0000532D01*
X0021852Y0002683D02*
Y0000532D01*
X0025992Y0012996D02*
Y0002933D01*
X0021672Y0012847D02*
Y0003677D01*
X0022572Y0002683D02*
Y0000532D01*
X0021492Y0012847D02*
Y0000532D01*
X0021402Y0012847D02*
Y0000532D01*
X0021312Y0012847D02*
Y0000532D01*
X0021132Y0012847D02*
Y0000532D01*
X0021042Y0012996D02*
Y0000532D01*
X0020952Y0012996D02*
Y0000532D01*
X0020862Y0012996D02*
Y0000532D01*
X0020772Y0012996D02*
Y0000532D01*
X0020682Y0012996D02*
Y0000532D01*
X0020592Y0012996D02*
Y0000532D01*
X0020502Y0012996D02*
Y0000532D01*
X0020412Y0012996D02*
Y0000532D01*
X0020322Y0012996D02*
Y0000532D01*
X0021515Y0003232D02*
X0020185D01*
X0022852Y0003677D02*
Y0003180D01*
X0021067Y0012996D02*
X0020216D01*
X0026712D02*
Y0002933D01*
X0020216Y0012996D02*
X0020185D01*
X0029713D02*
X0022061D01*
X0033261D02*
Y0012174D01*
X0029713Y0012952D02*
X0022061D01*
X0021067Y0012862D02*
X0020185D01*
X0029713Y0012772D02*
X0020185D01*
X0029713Y0012682D02*
X0020185D01*
X0036162Y0011369D02*
Y0009086D01*
X0037062Y0011506D02*
Y0008950D01*
X0035982Y0011379D02*
Y0009077D01*
X0034092Y0011469D02*
Y0008986D01*
X0033102Y0011452D02*
Y0009004D01*
X0032112Y0011435D02*
Y0009020D01*
X0031032Y0011650D02*
Y0008806D01*
X0029713Y0012412D02*
X0020185D01*
X0029713Y0012322D02*
X0020185D01*
X0029713Y0012232D02*
X0020185D01*
X0029713Y0012142D02*
X0020185D01*
X0041441Y0011242D02*
X0038807D01*
X0029713Y0011332D02*
X0020185D01*
X0029713Y0011242D02*
X0020185D01*
X0029713Y0011152D02*
X0020185D01*
X0029713Y0011062D02*
X0020185D01*
X0042353Y0009775D02*
X0042199D01*
X0029713Y0010882D02*
X0020185D01*
X0029713Y0010792D02*
X0020185D01*
X0029713Y0010702D02*
X0020185D01*
X0029713Y0010612D02*
X0020185D01*
X0029713Y0010522D02*
X0020185D01*
X0029713Y0010432D02*
X0020185D01*
X0029713Y0010342D02*
X0020185D01*
X0044532Y0000693D02*
Y0000532D01*
X0029713Y0009892D02*
X0020185D01*
X0046422Y0000664D02*
Y0000532D01*
X0029713Y0009802D02*
X0020185D01*
X0029713Y0009712D02*
X0020185D01*
X0029713Y0009532D02*
X0020185D01*
X0031122Y0004899D02*
Y0000532D01*
X0029713Y0009442D02*
X0020185D01*
X0029713Y0009352D02*
X0020185D01*
X0029713Y0009262D02*
X0020185D01*
X0029713Y0009172D02*
X0020185D01*
X0029713Y0009082D02*
X0020185D01*
X0029713Y0008992D02*
X0020185D01*
X0029713Y0008812D02*
X0020185D01*
X0029713Y0008722D02*
X0020185D01*
X0029713Y0008632D02*
X0020185D01*
X0029713Y0008542D02*
X0020185D01*
X0033941Y0006562D02*
X0032391D01*
X0033462Y0007236D02*
Y0005905D01*
X0032832Y0007376D02*
Y0005893D01*
X0029713Y0008362D02*
X0020185D01*
X0029713Y0008272D02*
X0020185D01*
X0029713Y0008182D02*
X0020185D01*
X0036779Y0006543D02*
X0035939D01*
X0039289Y0005985D02*
X0039099D01*
X0029713Y0007732D02*
X0020185D01*
X0029713Y0007642D02*
X0020185D01*
X0029713Y0007552D02*
X0020185D01*
X0029713Y0007462D02*
X0020185D01*
X0029713Y0007372D02*
X0020185D01*
X0029713Y0007282D02*
X0020185D01*
X0036072Y0006543D02*
Y0000532D01*
X0035939Y0007192D02*
X0034570D01*
X0033593Y0006922D02*
X0032575D01*
X0029713Y0006742D02*
X0020185D01*
X0029713Y0006652D02*
X0020185D01*
X0029713Y0006562D02*
X0020185D01*
X0037152Y0005207D02*
Y0000532D01*
X0029713Y0006382D02*
X0020185D01*
X0039222Y0004991D02*
Y0000532D01*
X0029713Y0006292D02*
X0020185D01*
X0033282Y0004911D02*
Y0000532D01*
X0031212Y0004899D02*
Y0000532D01*
X0029713Y0006022D02*
X0020185D01*
X0029713Y0005932D02*
X0020185D01*
X0029713Y0005842D02*
X0020185D01*
X0029713Y0005752D02*
X0020185D01*
X0029713Y0005662D02*
X0020185D01*
X0029713Y0005572D02*
X0020185D01*
X0043002Y0000658D02*
Y0000532D01*
X0029713Y0005032D02*
X0020185D01*
X0029713Y0004942D02*
X0020185D01*
X0029713Y0004852D02*
X0020185D01*
X0029713Y0004762D02*
X0020185D01*
X0029713Y0004672D02*
X0020185D01*
X0029713Y0004582D02*
X0020185D01*
X0029713Y0004492D02*
X0020185D01*
X0029713Y0004402D02*
X0020185D01*
X0029713Y0004312D02*
X0020185D01*
X0029713Y0004222D02*
X0020185D01*
X0029713Y0004132D02*
X0020185D01*
X0029713Y0004042D02*
X0020185D01*
X0029713Y0003952D02*
X0020185D01*
X0021672Y0002683D02*
Y0000532D01*
X0025647Y0001072D02*
X0020185D01*
X0021515Y0003592D02*
X0020185D01*
X0021515Y0003502D02*
X0020185D01*
X0021515Y0003412D02*
X0020185D01*
X0021515Y0003322D02*
X0020185D01*
X0021515Y0003142D02*
X0020185D01*
X0021515Y0003052D02*
X0020185D01*
X0025835Y0002602D02*
X0020185D01*
X0025835Y0002512D02*
X0020185D01*
X0025835Y0002692D02*
X0023349D01*
X0021515Y0002962D02*
X0020185D01*
X0021515Y0002872D02*
X0020185D01*
X0021515Y0002782D02*
X0020185D01*
X0021515Y0002692D02*
X0020185D01*
X0025835Y0002332D02*
X0020185D01*
X0025835Y0002242D02*
X0020185D01*
X0025835Y0002152D02*
X0020185D01*
X0044037Y0002062D02*
X0027669D01*
X0025835Y0001972D02*
X0020185D01*
X0044037Y0001882D02*
X0020185D01*
X0043992Y0000795D02*
Y0000532D01*
X0044037Y0001702D02*
X0020185D01*
X0025812Y0012996D02*
Y0001461D01*
X0025647Y0001432D02*
X0020185D01*
X0025647Y0001342D02*
X0020185D01*
X0025647Y0001252D02*
X0020185D01*
X0025647Y0001162D02*
X0020185D01*
X0042822Y0001522D02*
X0020185D01*
X0025647Y0000982D02*
X0020185D01*
X0025647Y0000892D02*
X0020185D01*
X0025647Y0000802D02*
X0020185D01*
X0038862Y0011273D02*
Y0009183D01*
X0038682Y0011198D02*
Y0009257D01*
X0038592Y0011187D02*
Y0009269D01*
X0038502Y0011190D02*
Y0009265D01*
X0038412Y0011209D02*
Y0009247D01*
X0038322Y0011245D02*
Y0009210D01*
X0038232Y0011303D02*
Y0009153D01*
X0042199Y0009775D02*
X0041837D01*
X0038142Y0011393D02*
Y0009062D01*
X0038052Y0011485D02*
Y0008971D01*
X0037962Y0011356D02*
Y0009100D01*
X0037872Y0011280D02*
Y0009176D01*
X0038477Y0009262D02*
X0037659D01*
X0038258Y0009172D02*
X0037878D01*
X0038158Y0009082D02*
X0037978D01*
X0037782Y0011230D02*
Y0009225D01*
X0037692Y0011201D02*
Y0009255D01*
X0037602Y0011187D02*
Y0009268D01*
X0037512Y0011189D02*
Y0009267D01*
X0037422Y0011206D02*
Y0009249D01*
X0037477Y0009262D02*
X0036659D01*
X0037258Y0009172D02*
X0036878D01*
X0037158Y0009082D02*
X0036978D01*
X0040525Y0008902D02*
X0039081D01*
X0037152Y0011381D02*
Y0009075D01*
X0035892Y0011294D02*
Y0009162D01*
X0035802Y0011239D02*
Y0009216D01*
X0035712Y0011206D02*
Y0009250D01*
X0035622Y0011189D02*
Y0009267D01*
X0035532Y0011187D02*
Y0009268D01*
X0035442Y0011201D02*
Y0009255D01*
X0035352Y0011231D02*
Y0009225D01*
X0035262Y0011281D02*
Y0009175D01*
X0036477Y0009262D02*
X0035659D01*
X0036258Y0009172D02*
X0035878D01*
X0036158Y0009082D02*
X0035978D01*
X0036102Y0008452D02*
X0036034D01*
X0036072Y0011510D02*
Y0008946D01*
X0035082Y0011489D02*
Y0008967D01*
X0035172Y0008358D02*
Y0000532D01*
X0034992Y0011391D02*
Y0009065D01*
X0034902Y0011301D02*
Y0009154D01*
X0034812Y0011244D02*
Y0009211D01*
X0034722Y0011209D02*
Y0009247D01*
X0034632Y0011190D02*
Y0009266D01*
X0034542Y0011187D02*
Y0009269D01*
X0034452Y0011199D02*
Y0009257D01*
X0034362Y0011227D02*
Y0009229D01*
X0034272Y0011274D02*
Y0009181D01*
X0035172Y0011358D02*
Y0009097D01*
X0035477Y0009262D02*
X0034659D01*
X0035258Y0009172D02*
X0034878D01*
X0035158Y0009082D02*
X0034978D01*
X0040525Y0008992D02*
X0039041D01*
X0035169Y0008362D02*
X0034967D01*
X0034002Y0011404D02*
Y0009052D01*
X0033372Y0011223D02*
Y0009233D01*
X0033282Y0011268D02*
Y0009188D01*
X0034182Y0011348D02*
Y0009108D01*
X0034477Y0009262D02*
X0033659D01*
X0032832Y0011255D02*
Y0009201D01*
X0033192Y0004911D02*
Y0000532D01*
X0032742Y0011215D02*
Y0009241D01*
X0033012Y0011418D02*
Y0009038D01*
X0032922Y0011318D02*
Y0009138D01*
X0032652Y0011193D02*
Y0009263D01*
X0032562Y0011186D02*
Y0009269D01*
X0032472Y0011195D02*
Y0009261D01*
X0032382Y0011219D02*
Y0009237D01*
X0032292Y0011262D02*
Y0009194D01*
X0032202Y0011329D02*
Y0009127D01*
X0033192Y0011338D02*
Y0009118D01*
X0033477Y0009262D02*
X0032659D01*
X0033258Y0009172D02*
X0032878D01*
X0033158Y0009082D02*
X0032978D01*
X0038095Y0008992D02*
X0038041D01*
X0032022Y0011432D02*
Y0009023D01*
X0031932Y0011327D02*
Y0009129D01*
X0031842Y0011261D02*
Y0009195D01*
X0031752Y0011218D02*
Y0009237D01*
X0031662Y0011194D02*
Y0009261D01*
X0031572Y0011186D02*
Y0009269D01*
X0031482Y0011193D02*
Y0009263D01*
X0031392Y0011216D02*
Y0009240D01*
X0031302Y0011256D02*
Y0009200D01*
X0031212Y0011320D02*
Y0009136D01*
X0031122Y0011420D02*
Y0009035D01*
X0034185Y0006472D02*
X0032391D01*
X0032477Y0009262D02*
X0031659D01*
X0032258Y0009172D02*
X0031878D01*
X0032158Y0009082D02*
X0031978D01*
X0036129Y0007552D02*
X0034136D01*
X0029713Y0008092D02*
X0020185D01*
X0040752Y0012761D02*
Y0009558D01*
X0043856Y0008722D02*
X0041139D01*
X0039100Y0008629D02*
X0040650Y0007079D01*
X0036129Y0008410D02*
Y0007537D01*
X0035939D01*
X0036882Y0011286D02*
Y0009169D01*
X0035102Y0008452D02*
X0035034D01*
X0038952Y0006629D02*
Y0000532D01*
X0038772Y0006463D02*
Y0006201D01*
X0038682Y0006425D02*
Y0006201D01*
X0038592Y0006406D02*
Y0006201D01*
X0038502Y0006404D02*
Y0006201D01*
X0038412Y0006419D02*
Y0006201D01*
X0039289Y0006112D02*
X0038825D01*
X0041659Y0005893D02*
Y0005703D01*
X0037962Y0005207D02*
Y0000532D01*
X0038322Y0006452D02*
Y0006201D01*
X0036882Y0006543D02*
Y0000532D01*
X0037692Y0006543D02*
Y0006201D01*
X0037602Y0006543D02*
Y0006201D01*
X0039289Y0006292D02*
X0037583D01*
X0039289Y0006382D02*
X0037583D01*
X0039289Y0006202D02*
X0037583D01*
X0036978Y0005842D02*
X0034989D01*
X0036991Y0005802D02*
Y0005207D01*
X0038232Y0006507D02*
Y0006201D01*
X0041058Y0003592D02*
X0030327D01*
X0026802Y0012996D02*
Y0002933D01*
X0030672Y0002099D02*
Y0000532D01*
X0029682Y0012996D02*
Y0003364D01*
X0029592Y0012996D02*
Y0003274D01*
X0026892Y0012996D02*
Y0002933D01*
X0040698Y0003952D02*
X0030327D01*
X0030312Y0003174D02*
Y0003093D01*
X0040608Y0004042D02*
X0030327D01*
X0040518Y0004132D02*
X0030327D01*
X0040428Y0004222D02*
X0030327D01*
X0038825Y0006201D02*
X0037985D01*
X0029550Y0003232D02*
X0023349D01*
X0041598Y0003052D02*
X0030685D01*
X0041688Y0002962D02*
X0030685D01*
X0041778Y0002872D02*
X0030685D01*
X0029713Y0003395D02*
X0029411Y0003093D01*
X0030327Y0012996D02*
Y0003268D01*
X0030492Y0002099D02*
Y0000532D01*
X0027072Y0012996D02*
Y0002933D01*
X0029412Y0002099D02*
Y0000532D01*
X0029322Y0002099D02*
Y0000532D01*
X0029232Y0002099D02*
Y0000532D01*
X0029142Y0002099D02*
Y0000532D01*
X0029052Y0002099D02*
Y0000532D01*
X0046744Y0000712D02*
X0046574D01*
X0045612Y0000732D02*
Y0000532D01*
X0028872Y0012996D02*
Y0003093D01*
X0028962Y0002099D02*
Y0000532D01*
X0045861Y0000982D02*
X0045826D01*
X0045972Y0000814D02*
Y0000532D01*
X0044861Y0000982D02*
X0044826D01*
X0043866Y0001702D02*
Y0001388D01*
X0043362Y0002445D02*
Y0001702D01*
X0043992Y0002445D02*
Y0001565D01*
X0044982Y0000804D02*
Y0000532D01*
X0043950Y0001522D02*
X0043866D01*
X0043887Y0001432D02*
X0043866D01*
X0043909Y0000892D02*
X0043866D01*
X0043984Y0000802D02*
X0043866D01*
X0044037Y0002332D02*
X0030685D01*
X0043812Y0002445D02*
Y0001702D01*
X0043722Y0002445D02*
Y0001702D01*
X0043632Y0002445D02*
Y0001702D01*
X0043542Y0002445D02*
Y0001702D01*
X0043902Y0002445D02*
Y0001457D01*
X0043272Y0002445D02*
Y0001702D01*
X0043182Y0002445D02*
Y0001702D01*
X0043092Y0002445D02*
Y0001702D01*
X0043002Y0002445D02*
Y0001702D01*
X0033012Y0008418D02*
Y0000532D01*
X0032022Y0004899D02*
Y0000532D01*
X0029713Y0006202D02*
X0020185D01*
X0034185D02*
X0032391D01*
X0034185Y0006382D02*
X0032391D01*
X0031752Y0006665D02*
Y0005893D01*
X0031572Y0008186D02*
Y0005893D01*
X0031482Y0008193D02*
Y0005893D01*
X0031392Y0008216D02*
Y0005893D01*
X0031302Y0008256D02*
Y0005893D01*
X0031212Y0008320D02*
Y0005893D01*
X0032472Y0006722D02*
Y0005893D01*
X0033155Y0005842D02*
X0032861D01*
X0033155Y0005752D02*
X0032861D01*
X0033155Y0005662D02*
X0032861D01*
X0033155Y0005572D02*
X0032861D01*
X0033155Y0005482D02*
X0032861D01*
X0033155Y0005392D02*
X0032861D01*
X0033155Y0005302D02*
X0032861D01*
X0033155Y0005212D02*
X0032861D01*
X0035082Y0008489D02*
Y0000532D01*
X0034902Y0008301D02*
Y0005905D01*
X0034812Y0008244D02*
Y0005905D01*
X0034185Y0005932D02*
X0032391D01*
X0035939Y0006832D02*
X0034731D01*
X0029713D02*
X0020185D01*
X0035939Y0006562D02*
X0034799D01*
X0036969Y0005932D02*
X0034799D01*
X0034149Y0005905D02*
X0033995D01*
X0034092Y0006541D02*
Y0005905D01*
X0034002Y0006548D02*
Y0005905D01*
X0033912Y0006571D02*
Y0005905D01*
X0033822Y0006614D02*
Y0005905D01*
X0033732Y0006683D02*
Y0005905D01*
X0033282Y0008268D02*
Y0005905D01*
X0036969Y0006112D02*
X0034799D01*
X0031777Y0005893D02*
X0031027D01*
X0034185Y0006112D02*
X0032391D01*
X0036991Y0005752D02*
X0034989D01*
X0036991Y0005662D02*
X0034989D01*
X0036991Y0005572D02*
X0034989D01*
X0039099D02*
X0038825D01*
X0036991Y0005392D02*
X0034989D01*
X0032261Y0007659D02*
X0032152Y0007550D01*
X0039099Y0005122D02*
X0034989D01*
X0041755Y0006411D02*
X0042274Y0005893D01*
X0040525Y0008722D02*
X0039109D01*
X0029502Y0002099D02*
Y0000532D01*
X0027702Y0002289D02*
Y0000532D01*
X0026675Y0001939D02*
X0025835D01*
X0026675Y0002933D02*
X0025835D01*
X0046744Y0000622D02*
X0027481D01*
X0026442Y0012996D02*
Y0002933D01*
X0020185Y0012996D02*
Y0000532D01*
X0026262Y0012996D02*
Y0002933D01*
X0025647Y0001461D02*
Y0000532D01*
X0025722Y0012996D02*
Y0001461D01*
X0026802Y0001939D02*
Y0001461D01*
X0028851Y0002962D02*
X0023349D01*
X0028851Y0002242D02*
X0027669D01*
X0026892Y0001939D02*
Y0001461D01*
X0020232Y0012996D02*
Y0000532D01*
X0026622Y0012996D02*
Y0002933D01*
X0026829D02*
X0026675D01*
X0041441Y0012322D02*
X0039596D01*
X0036969Y0006543D02*
X0036933D01*
X0026712Y0001939D02*
Y0001461D01*
X0026532Y0001939D02*
Y0001461D01*
X0042822Y0001612D02*
X0020185D01*
X0042822Y0001432D02*
X0027481D01*
X0042822Y0001342D02*
X0027481D01*
X0042822Y0001252D02*
X0027481D01*
X0042822Y0001162D02*
X0027481D01*
X0042822Y0001072D02*
X0027481D01*
X0042822Y0000982D02*
X0027481D01*
X0042822Y0000892D02*
X0027481D01*
X0042822Y0000802D02*
X0027481D01*
X0022355Y0003677D02*
X0021515D01*
X0022392Y0012996D02*
Y0003677D01*
X0023292Y0012996D02*
Y0003677D01*
X0023202Y0012996D02*
Y0003677D01*
X0023112Y0012996D02*
Y0003677D01*
X0023022Y0012996D02*
Y0003677D01*
X0022932Y0012996D02*
Y0003677D01*
X0022842Y0012996D02*
Y0003677D01*
X0025647Y0000712D02*
X0020185D01*
X0033462Y0004911D02*
Y0000532D01*
X0022662Y0012996D02*
Y0003677D01*
X0022302Y0012996D02*
Y0003677D01*
X0022212Y0012996D02*
Y0003677D01*
X0026532Y0012996D02*
Y0002933D01*
X0022032Y0012847D02*
Y0003677D01*
X0021942Y0012847D02*
Y0003677D01*
X0021852Y0012847D02*
Y0003677D01*
X0021762Y0012847D02*
Y0003677D01*
X0021222Y0012847D02*
Y0000532D01*
X0022662Y0002683D02*
Y0000532D01*
X0040212Y0004438D02*
Y0000532D01*
X0029713Y0003772D02*
X0020185D01*
X0040248Y0004402D02*
X0030327D01*
X0029713Y0003592D02*
X0023349D01*
X0029713Y0003502D02*
X0023349D01*
X0029640Y0003322D02*
X0023349D01*
X0029952Y0002099D02*
Y0000532D01*
X0028851Y0003052D02*
X0023349D01*
X0025902Y0001939D02*
Y0001461D01*
X0025835Y0002872D02*
X0023349D01*
X0025835Y0002422D02*
X0020185D01*
X0032185Y0012111D02*
X0032568Y0011728D01*
X0032951Y0011345D02*
X0032568Y0011728D01*
X0032185Y0011345D02*
X0032568Y0011728D01*
X0032951Y0012111D02*
X0032568Y0011728D01*
X0036991Y0005482D02*
X0034989D01*
X0038825Y0005704D02*
X0038328D01*
Y0005207D02*
Y0005704D01*
Y0006201D02*
Y0005704D01*
X0028851Y0002152D02*
X0027669D01*
X0030685Y0002596D02*
X0030188D01*
Y0002099D02*
Y0002596D01*
X0041328Y0003322D02*
X0030327D01*
X0027522Y0001939D02*
Y0000532D01*
X0027481Y0000964D02*
X0026984D01*
Y0001461D02*
Y0000964D01*
X0023349Y0003677D02*
X0022509D01*
X0023349Y0003180D02*
X0022852D01*
Y0002683D02*
Y0003180D01*
X0041652Y0002998D02*
Y0000532D01*
X0021762Y0002683D02*
Y0000532D01*
X0029713Y0008902D02*
X0020185D01*
X0029713Y0010252D02*
X0020185D01*
X0027702Y0012996D02*
Y0002903D01*
X0044237Y0010085D02*
X0043193D01*
X0025647Y0000622D02*
X0020185D01*
X0029713Y0010162D02*
X0020185D01*
X0043193Y0009775D02*
X0042353D01*
X0022061Y0012996D02*
Y0012847D01*
X0044250Y0010072D02*
X0043193D01*
X0044331Y0009802D02*
X0043193D01*
X0041784Y0006382D02*
X0040743D01*
X0041202Y0007941D02*
Y0005703D01*
X0041112Y0003538D02*
Y0000532D01*
X0040662Y0012761D02*
Y0009468D01*
X0044274Y0009172D02*
X0041234D01*
X0041292Y0009230D02*
Y0008459D01*
X0029713Y0009982D02*
X0020185D01*
X0041659Y0005752D02*
X0040933D01*
X0041659Y0005842D02*
X0040933D01*
X0043921Y0008812D02*
X0041139D01*
X0040392Y0008041D02*
Y0007338D01*
Y0012761D02*
Y0008502D01*
X0040482Y0012761D02*
Y0008624D01*
X0041139Y0009077D02*
Y0008663D01*
X0040572Y0012761D02*
Y0009366D01*
X0041359Y0010165D02*
X0040617Y0009423D01*
X0041652Y0009590D02*
Y0005703D01*
X0039028Y0006834D02*
X0039289Y0006573D01*
X0032169Y0008362D02*
X0031967D01*
X0038142Y0006593D02*
Y0006201D01*
X0037962Y0006593D02*
Y0006201D01*
X0043496Y0008362D02*
X0041320D01*
X0032102Y0008452D02*
X0032034D01*
X0037095Y0008992D02*
X0037041D01*
X0038284Y0006472D02*
X0037583D01*
X0036095Y0008992D02*
X0036041D01*
X0035095D02*
X0035041D01*
X0029713Y0006472D02*
X0020185D01*
X0030582Y0002099D02*
Y0000532D01*
X0041238Y0003412D02*
X0030327D01*
X0029460Y0003142D02*
X0023349D01*
X0044037Y0002242D02*
X0030685D01*
X0044032Y0002422D02*
X0030685D01*
X0028512Y0012996D02*
Y0002903D01*
X0030685Y0003093D02*
X0030271D01*
X0040878Y0003772D02*
X0030327D01*
X0037872Y0006593D02*
Y0006201D01*
X0041441Y0011872D02*
X0039146D01*
X0041562Y0003088D02*
Y0000532D01*
X0029713Y0012862D02*
X0022061D01*
X0029713Y0012052D02*
X0020185D01*
X0041441Y0011332D02*
X0038937D01*
X0041441Y0011422D02*
X0039015D01*
X0041441Y0011512D02*
X0039065D01*
X0040158Y0004492D02*
X0030327D01*
X0039978Y0004672D02*
X0030327D01*
X0041922Y0002728D02*
Y0000532D01*
X0041687Y0006742D02*
X0040743D01*
X0029713Y0005302D02*
X0020185D01*
X0042416Y0007282D02*
X0040448D01*
X0041743Y0006832D02*
X0040743D01*
X0041666Y0006652D02*
X0040743D01*
X0042234Y0005932D02*
X0040933D01*
X0041885Y0006922D02*
X0040736D01*
X0042102Y0006064D02*
Y0005893D01*
X0044331Y0009431D02*
Y0009229D01*
X0043272Y0010085D02*
Y0008138D01*
X0042012Y0006154D02*
Y0005893D01*
X0041251Y0012682D02*
X0039956D01*
X0041251Y0012761D02*
Y0012571D01*
X0029713Y0003412D02*
X0023349D01*
X0042326Y0007192D02*
X0040538D01*
X0042069Y0006935D02*
X0041972D01*
X0043902Y0010085D02*
Y0008781D01*
X0041251Y0012592D02*
X0039866D01*
X0044331Y0009229D02*
X0043957Y0008855D01*
X0044172Y0010085D02*
Y0009070D01*
X0046113Y0000712D02*
X0045574D01*
X0046744Y0000802D02*
X0046703D01*
X0042274Y0005893D02*
X0041659D01*
X0044037Y0001792D02*
X0020185D01*
X0026982Y0012996D02*
Y0002933D01*
X0029592Y0002099D02*
Y0000532D01*
X0040968Y0003682D02*
X0030327D01*
X0042048Y0002602D02*
X0030685D01*
X0041958Y0002692D02*
X0030685D01*
X0028851Y0002289D02*
X0027669D01*
X0027162Y0012996D02*
Y0002933D01*
X0029682Y0002099D02*
Y0000532D01*
X0027342Y0012996D02*
Y0002933D01*
X0027432Y0012996D02*
Y0002933D01*
X0030582Y0012996D02*
Y0003093D01*
X0044331Y0009982D02*
X0043193D01*
X0041441Y0010769D02*
X0041359D01*
X0029713Y0007012D02*
X0020185D01*
X0033305Y0008182D02*
X0032875D01*
Y0008281D02*
Y0007532D01*
X0033169Y0008362D02*
X0032967D01*
X0033102Y0008452D02*
X0033034D01*
X0033311Y0007462D02*
X0032866D01*
X0034586Y0006979D02*
X0034706Y0006859D01*
X0032112Y0008435D02*
Y0007554D01*
X0033305Y0007552D02*
X0032875D01*
X0032261Y0008272D02*
X0031860D01*
X0032785Y0007315D02*
X0032586Y0007116D01*
X0034185Y0005905D02*
X0034149D01*
X0034989D02*
X0034799D01*
X0036969Y0006292D02*
X0034799D01*
X0035939Y0006922D02*
X0034644D01*
X0032652Y0007182D02*
Y0005893D01*
X0034185Y0006513D02*
Y0005905D01*
X0033642Y0006800D02*
Y0005905D01*
X0039099Y0005212D02*
X0034989D01*
X0033995Y0005905D02*
X0033155D01*
X0033995Y0004911D02*
X0033155D01*
X0036969Y0006382D02*
X0034799D01*
Y0006640D02*
Y0005905D01*
X0040482Y0007919D02*
Y0007248D01*
X0040933Y0005985D02*
X0040743D01*
X0040525Y0009172D02*
X0038878D01*
X0040302Y0004348D02*
Y0000532D01*
X0040572Y0007849D02*
Y0007158D01*
X0040743Y0006860D02*
Y0005985D01*
X0045113Y0000712D02*
X0044574D01*
X0045984Y0000802D02*
X0045703D01*
X0045909Y0000892D02*
X0045779D01*
X0041659Y0005703D02*
X0040933D01*
X0041922Y0006244D02*
Y0005893D01*
X0029713Y0005212D02*
X0020185D01*
X0039099Y0005032D02*
X0034989D01*
X0033919Y0007647D02*
X0034015Y0007550D01*
X0033506Y0007192D02*
X0032662D01*
X0036129Y0007642D02*
X0033924D01*
X0031777Y0006645D02*
Y0005893D01*
X0035939Y0007012D02*
X0034589D01*
X0035939Y0007102D02*
X0034588D01*
X0034169Y0008362D02*
X0033967D01*
X0033395Y0007303D02*
X0033582Y0007116D01*
X0033552Y0007146D02*
Y0005905D01*
Y0011186D02*
Y0009269D01*
X0029713Y0007102D02*
X0020185D01*
X0033305Y0008254D02*
Y0007520D01*
X0040636Y0009442D02*
X0030327D01*
X0034158Y0009082D02*
X0033978D01*
X0033642Y0011191D02*
Y0009264D01*
X0033732Y0011212D02*
Y0009244D01*
X0033822Y0011249D02*
Y0009206D01*
X0029713Y0011602D02*
X0020185D01*
X0033102Y0012996D02*
Y0012004D01*
X0033462Y0011197D02*
Y0009259D01*
X0036129Y0008002D02*
X0033919D01*
X0043452Y0002445D02*
Y0001702D01*
X0044113Y0000712D02*
X0043866D01*
X0042282Y0002449D02*
Y0000532D01*
X0044984Y0000802D02*
X0044703D01*
X0044909Y0000892D02*
X0044779D01*
X0044331Y0009712D02*
X0041774D01*
X0044331Y0009622D02*
X0041684D01*
X0044331Y0009532D02*
X0041594D01*
X0041202Y0012761D02*
Y0010008D01*
X0041292Y0012571D02*
Y0010098D01*
X0040563Y0009352D02*
X0030327D01*
X0044331Y0009262D02*
X0041324D01*
X0044331Y0009442D02*
X0041504D01*
X0044094Y0008992D02*
X0041139D01*
X0044004Y0008902D02*
X0041139D01*
X0044331Y0009352D02*
X0041414D01*
X0040525Y0009082D02*
X0038978D01*
X0041202Y0009140D02*
Y0008603D01*
X0044184Y0009082D02*
X0041144D01*
X0041112Y0012761D02*
Y0009918D01*
X0041022Y0012761D02*
Y0009828D01*
X0040932Y0012761D02*
Y0009738D01*
X0040842Y0012761D02*
Y0009648D01*
X0043766Y0008632D02*
X0041174D01*
X0043316Y0008182D02*
X0041320D01*
X0043226Y0008092D02*
X0041295D01*
X0043136Y0008002D02*
X0041249D01*
X0043046Y0007912D02*
X0041174D01*
X0042956Y0007822D02*
X0041042D01*
X0043676Y0008542D02*
X0041249D01*
X0043586Y0008452D02*
X0041295D01*
X0039289Y0006472D02*
X0038788D01*
X0039120Y0006742D02*
X0039007D01*
X0039210Y0006652D02*
X0038966D01*
X0039289Y0006562D02*
X0038900D01*
X0033261Y0012996D02*
X0030327D01*
X0033261Y0012952D02*
X0030327D01*
X0033261Y0012862D02*
X0030327D01*
X0033261Y0012772D02*
X0030327D01*
X0033261Y0012682D02*
X0030327D01*
X0033261Y0012592D02*
X0030327D01*
X0033261Y0012502D02*
X0030327D01*
X0033261Y0012412D02*
X0030327D01*
X0033261Y0012322D02*
X0030327D01*
X0031369Y0012232D02*
X0030327D01*
X0031219Y0012142D02*
X0030327D01*
X0031134Y0012052D02*
X0030327D01*
X0031079Y0011962D02*
X0030327D01*
X0031046Y0011872D02*
X0030327D01*
X0031029Y0011782D02*
X0030327D01*
X0031027Y0011692D02*
X0030327D01*
X0031041Y0011602D02*
X0030327D01*
X0031071Y0011512D02*
X0030327D01*
X0031121Y0011422D02*
X0030327D01*
X0031198Y0011332D02*
X0030327D01*
X0031329Y0011242D02*
X0030327D01*
X0041441Y0011152D02*
X0030327D01*
X0041441Y0011062D02*
X0030327D01*
X0041441Y0010972D02*
X0030327D01*
X0041441Y0010882D02*
X0030327D01*
X0041441Y0010792D02*
X0030327D01*
X0041359Y0010702D02*
X0030327D01*
X0041359Y0010612D02*
X0030327D01*
X0041359Y0010522D02*
X0030327D01*
X0041359Y0010432D02*
X0030327D01*
X0041359Y0010342D02*
X0030327D01*
X0041359Y0010252D02*
X0030327D01*
X0041356Y0010162D02*
X0030327D01*
X0041266Y0010072D02*
X0030327D01*
X0040531Y0009262D02*
X0038659D01*
X0041086Y0009892D02*
X0030327D01*
X0040996Y0009802D02*
X0030327D01*
X0040906Y0009712D02*
X0030327D01*
X0040816Y0009622D02*
X0030327D01*
X0041382Y0009320D02*
Y0005703D01*
X0040726Y0009532D02*
X0030327D01*
X0031477Y0009262D02*
X0030327D01*
X0031258Y0009172D02*
X0030327D01*
X0031158Y0009082D02*
X0030327D01*
X0031095Y0008992D02*
X0030327D01*
X0031055Y0008902D02*
X0030327D01*
X0031033Y0008812D02*
X0030327D01*
X0031026Y0008722D02*
X0030327D01*
X0031035Y0008632D02*
X0030327D01*
X0031059Y0008542D02*
X0030327D01*
X0031102Y0008452D02*
X0030327D01*
X0031169Y0008362D02*
X0030327D01*
X0031275Y0008272D02*
X0030327D01*
X0032261Y0008182D02*
X0030327D01*
X0032261Y0008092D02*
X0030327D01*
X0032261Y0008002D02*
X0030327D01*
X0032261Y0007912D02*
X0030327D01*
X0032261Y0007822D02*
X0030327D01*
X0032261Y0007732D02*
X0030327D01*
X0032244Y0007642D02*
X0030327D01*
X0032032Y0007552D02*
X0030327D01*
X0031792Y0007462D02*
X0030327D01*
X0031694Y0007372D02*
X0030327D01*
X0031634Y0007282D02*
X0030327D01*
X0031598Y0007192D02*
X0030327D01*
X0031580Y0007102D02*
X0030327D01*
X0031578Y0007012D02*
X0030327D01*
X0031593Y0006922D02*
X0030327D01*
X0031626Y0006832D02*
X0030327D01*
X0031680Y0006742D02*
X0030327D01*
X0031768Y0006652D02*
X0030327D01*
X0031777Y0006562D02*
X0030327D01*
X0031777Y0006472D02*
X0030327D01*
X0031777Y0006382D02*
X0030327D01*
X0031777Y0006292D02*
X0030327D01*
X0031777Y0006202D02*
X0030327D01*
X0031777Y0006112D02*
X0030327D01*
X0031777Y0006022D02*
X0030327D01*
X0031777Y0005932D02*
X0030327D01*
X0031027Y0005842D02*
X0030327D01*
X0031027Y0005752D02*
X0030327D01*
X0031027Y0005662D02*
X0030327D01*
X0031027Y0005572D02*
X0030327D01*
X0031027Y0005482D02*
X0030327D01*
X0031027Y0005392D02*
X0030327D01*
X0031027Y0005302D02*
X0030327D01*
X0031027Y0005212D02*
X0030327D01*
X0031027Y0005122D02*
X0030327D01*
X0031027Y0005032D02*
X0030327D01*
X0031027Y0004942D02*
X0030327D01*
X0039798Y0004852D02*
X0030327D01*
X0039888Y0004762D02*
X0030327D01*
X0040122Y0012761D02*
Y0007608D01*
X0040788Y0003862D02*
X0030327D01*
X0041148Y0003502D02*
X0030327D01*
X0041922Y0009775D02*
Y0006930D01*
X0043812Y0010085D02*
Y0008678D01*
X0041832Y0009770D02*
Y0006901D01*
X0043722Y0010085D02*
Y0008588D01*
X0043632Y0010085D02*
Y0008498D01*
X0043542Y0010085D02*
Y0008408D01*
X0042462Y0009775D02*
Y0007328D01*
X0042372Y0009775D02*
Y0007238D01*
X0042282Y0009775D02*
Y0007148D01*
X0042192Y0009775D02*
Y0007058D01*
X0043452Y0010085D02*
Y0008318D01*
X0043362Y0010085D02*
Y0008228D01*
X0043182Y0009775D02*
Y0008048D01*
X0043092Y0009775D02*
Y0007958D01*
X0043002Y0009775D02*
Y0007868D01*
X0042912Y0009775D02*
Y0007778D01*
X0042822Y0009775D02*
Y0007688D01*
X0042732Y0009775D02*
Y0007598D01*
X0042102Y0009775D02*
Y0006968D01*
X0043889Y0008755D02*
X0042069Y0006935D01*
X0042642Y0009775D02*
Y0007508D01*
X0042552Y0009775D02*
Y0007418D01*
X0044082Y0010085D02*
Y0008980D01*
X0043992Y0010085D02*
Y0008890D01*
X0040622Y0007822D02*
X0039908D01*
X0040842Y0003808D02*
Y0000532D01*
X0041742Y0002908D02*
Y0000532D01*
X0046692Y0000791D02*
Y0000532D01*
X0045792Y0000913D02*
Y0000532D01*
X0043722Y0000658D02*
Y0000532D01*
X0041472Y0003178D02*
Y0000532D01*
X0045432Y0000666D02*
Y0000532D01*
X0045252Y0000666D02*
Y0000532D01*
X0042642Y0002445D02*
Y0000532D01*
X0040122Y0004528D02*
Y0000532D01*
X0040415Y0008542D02*
X0039188D01*
X0042144Y0006022D02*
X0040743D01*
X0028851Y0003093D02*
Y0002903D01*
X0027669Y0002933D02*
Y0002903D01*
X0022572Y0012996D02*
Y0003677D01*
X0028782Y0002289D02*
Y0000532D01*
X0028692Y0002289D02*
Y0000532D01*
X0028602Y0002289D02*
Y0000532D01*
X0028512Y0002289D02*
Y0000532D01*
X0028422Y0002289D02*
Y0000532D01*
X0030312Y0002099D02*
Y0000532D01*
X0028242Y0002289D02*
Y0000532D01*
X0028152Y0002289D02*
Y0000532D01*
X0028062Y0002289D02*
Y0000532D01*
X0027972Y0002289D02*
Y0000532D01*
X0027882Y0002289D02*
Y0000532D01*
X0027792Y0002289D02*
Y0000532D01*
X0029713Y0007912D02*
X0020185D01*
X0033305Y0007822D02*
X0032875D01*
X0033275Y0008272D02*
X0032875D01*
X0036969Y0006472D02*
X0034799D01*
X0034632Y0008190D02*
Y0006934D01*
X0040525Y0008812D02*
X0039103D01*
X0040490Y0008632D02*
X0039101D01*
X0040343Y0008182D02*
X0039548D01*
X0040369Y0008092D02*
X0039638D01*
X0040415Y0008002D02*
X0039728D01*
X0040490Y0007912D02*
X0039818D01*
X0042866Y0007732D02*
X0039998D01*
X0040212Y0012761D02*
Y0007518D01*
X0039852Y0012578D02*
Y0007878D01*
X0039762Y0012488D02*
Y0007968D01*
X0039672Y0012398D02*
Y0008058D01*
X0042686Y0007552D02*
X0040178D01*
X0042596Y0007462D02*
X0040268D01*
X0042506Y0007372D02*
X0040358D01*
X0039582Y0012308D02*
Y0008148D01*
X0039492Y0012218D02*
Y0008238D01*
X0039402Y0012128D02*
Y0008328D01*
X0039312Y0012038D02*
Y0008418D01*
X0039222Y0011948D02*
Y0008508D01*
X0040302Y0012761D02*
Y0007428D01*
X0039132Y0011858D02*
Y0008598D01*
X0039942Y0012668D02*
Y0007788D01*
X0035939Y0006652D02*
X0034798D01*
X0042146Y0007012D02*
X0040702D01*
X0040343Y0008362D02*
X0039368D01*
X0042012Y0009775D02*
Y0006935D01*
X0041708Y0006472D02*
X0040743D01*
X0041874Y0006292D02*
X0040743D01*
X0041964Y0006202D02*
X0040743D01*
X0042054Y0006112D02*
X0040743D01*
X0042192Y0005974D02*
Y0005893D01*
X0046602Y0000726D02*
Y0000532D01*
X0043193Y0010085D02*
Y0009775D01*
X0036129Y0008182D02*
X0033919D01*
X0044037Y0001972D02*
X0027669D01*
X0044037Y0002417D02*
Y0001602D01*
X0044009Y0002445D02*
X0044037Y0002417D01*
X0042141Y0002512D02*
X0030685D01*
X0042912Y0000658D02*
Y0000532D01*
X0036972Y0006543D02*
Y0005956D01*
X0034185Y0006022D02*
X0032391D01*
X0040933Y0005985D02*
Y0005703D01*
X0041176Y0009982D02*
X0030327D01*
X0040032Y0012758D02*
Y0007698D01*
X0040035Y0012761D02*
X0039100Y0011827D01*
X0042776Y0007642D02*
X0040088D01*
X0037773Y0006593D02*
Y0006543D01*
X0041441Y0012502D02*
X0039776D01*
X0029713Y0008002D02*
X0020185D01*
X0033305Y0007642D02*
X0032875D01*
X0034032Y0007552D02*
X0034014D01*
X0032154D02*
X0032136D01*
X0029713Y0007822D02*
X0020185D01*
X0033580Y0007102D02*
X0032588D01*
X0033578Y0007012D02*
X0032589D01*
X0033680Y0006742D02*
X0032488D01*
X0033768Y0006652D02*
X0032400D01*
X0029713Y0006112D02*
X0020185D01*
X0033305Y0007732D02*
X0032875D01*
X0033343Y0007372D02*
X0032829D01*
X0032022Y0008432D02*
Y0007551D01*
X0031932Y0008327D02*
Y0007531D01*
X0031842Y0008261D02*
Y0007493D01*
X0031752Y0008218D02*
Y0007431D01*
X0031662Y0008194D02*
Y0007328D01*
X0032261Y0008281D02*
Y0007659D01*
X0033305Y0008002D02*
X0032875D01*
X0035939Y0007462D02*
X0034376D01*
X0035939Y0007372D02*
X0034473D01*
X0035939Y0007282D02*
X0034533D01*
X0034722Y0008209D02*
Y0006843D01*
X0034182Y0006516D02*
Y0005905D01*
X0035939Y0006742D02*
X0034781D01*
X0034542Y0008187D02*
Y0007265D01*
X0034452Y0008199D02*
Y0007396D01*
X0034362Y0008227D02*
Y0007471D01*
X0034272Y0008274D02*
Y0007518D01*
X0034182Y0008348D02*
Y0007545D01*
X0034092Y0008469D02*
Y0007554D01*
X0033919Y0008315D02*
Y0007647D01*
X0034002Y0008404D02*
Y0007564D01*
X0032022Y0012996D02*
Y0012023D01*
X0031932Y0012996D02*
Y0012129D01*
X0031842Y0012996D02*
Y0012195D01*
X0031752Y0012996D02*
Y0012237D01*
X0031662Y0012996D02*
Y0012261D01*
X0031572Y0012996D02*
Y0012269D01*
X0031482Y0012996D02*
Y0012263D01*
X0031392Y0012996D02*
Y0012240D01*
X0031302Y0012996D02*
Y0012200D01*
X0031212Y0012996D02*
Y0012136D01*
X0031122Y0012996D02*
Y0012035D01*
X0032369Y0012232D02*
X0031766D01*
X0032219Y0012142D02*
X0031917D01*
X0032134Y0012052D02*
X0032002D01*
X0032079Y0011962D02*
X0032056D01*
X0032121Y0011422D02*
X0032015D01*
X0032198Y0011332D02*
X0031937D01*
X0032329Y0011242D02*
X0031807D01*
X0031032Y0012996D02*
Y0011806D01*
X0032832Y0012996D02*
Y0012201D01*
X0032742Y0012996D02*
Y0012241D01*
X0033012Y0012996D02*
Y0012038D01*
X0032922Y0012996D02*
Y0012138D01*
X0032652Y0012996D02*
Y0012263D01*
X0032562Y0012996D02*
Y0012269D01*
X0032472Y0012996D02*
Y0012261D01*
X0032382Y0012996D02*
Y0012237D01*
X0032292Y0012996D02*
Y0012194D01*
X0032202Y0012996D02*
Y0012127D01*
X0029713Y0012502D02*
X0020185D01*
X0033219Y0012142D02*
X0032917D01*
X0033134Y0012052D02*
X0033002D01*
X0033079Y0011962D02*
X0033056D01*
X0033121Y0011422D02*
X0033015D01*
X0033198Y0011332D02*
X0032937D01*
X0033329Y0011242D02*
X0032807D01*
X0036129Y0007732D02*
X0033919D01*
X0036129Y0007822D02*
X0033919D01*
X0036129Y0007912D02*
X0033919D01*
X0033261Y0012232D02*
X0032766D01*
X0032112Y0012996D02*
Y0012020D01*
X0033192Y0012996D02*
Y0012118D01*
X0036129Y0008092D02*
X0033919D01*
X0034121Y0011422D02*
X0034015D01*
X0034198Y0011332D02*
X0033937D01*
X0035121Y0011422D02*
X0035015D01*
X0035198Y0011332D02*
X0034937D01*
X0035329Y0011242D02*
X0034807D01*
X0029713Y0012592D02*
X0020185D01*
X0036121Y0011422D02*
X0036015D01*
X0036198Y0011332D02*
X0035937D01*
X0036329Y0011242D02*
X0035807D01*
X0041441Y0012232D02*
X0039506D01*
X0029713Y0011872D02*
X0020185D01*
X0038121Y0011422D02*
X0038015D01*
X0038198Y0011332D02*
X0037937D01*
X0038329Y0011242D02*
X0037807D01*
X0029713Y0011962D02*
X0020185D01*
X0039762Y0004888D02*
Y0000532D01*
X0041441Y0012142D02*
X0039416D01*
X0041441Y0012052D02*
X0039326D01*
X0041441Y0011962D02*
X0039236D01*
X0041441Y0011782D02*
X0039107D01*
X0041441Y0011692D02*
X0039108D01*
X0041441Y0011602D02*
X0039095D01*
X0038772Y0011226D02*
Y0009230D01*
X0039042Y0011466D02*
Y0008990D01*
X0038952Y0011346D02*
Y0009110D01*
X0018893Y0010429D02*
X0018053D01*
X0019755Y0010342D02*
X0018893D01*
X0019755Y0008092D02*
X0015205D01*
X0019755Y0008002D02*
X0015205D01*
X0019755Y0007912D02*
X0015205D01*
X0019755Y0007822D02*
X0015205D01*
X0015042Y0007185D02*
Y0006385D01*
X0019755Y0004222D02*
X0000372D01*
X0019755Y0007552D02*
X0015205D01*
X0019755Y0007462D02*
X0015205D01*
X0014412Y0007185D02*
Y0006385D01*
X0019755Y0007732D02*
X0015205D01*
X0013872Y0012340D02*
Y0010347D01*
X0013692Y0012450D02*
Y0008159D01*
X0014232Y0009333D02*
Y0008159D01*
X0014142Y0009333D02*
Y0008159D01*
X0014052Y0009333D02*
Y0008159D01*
X0013962Y0009333D02*
Y0008159D01*
X0013872Y0009333D02*
Y0008159D01*
X0015762Y0009533D02*
Y0000532D01*
X0019812Y0013399D02*
Y0013170D01*
X0015672Y0012603D02*
Y0010147D01*
X0015492Y0012722D02*
Y0010251D01*
X0015402Y0012812D02*
Y0010303D01*
X0015222Y0012991D02*
Y0010346D01*
X0015132Y0012991D02*
Y0010342D01*
X0012765Y0013377D02*
X0012619D01*
X0015042Y0012940D02*
Y0010323D01*
X0014952Y0012850D02*
Y0010284D01*
X0014862Y0012760D02*
Y0010221D01*
X0017059Y0010147D02*
X0015599D01*
X0017059Y0010342D02*
X0015264D01*
X0017059Y0010252D02*
X0015491D01*
X0017059Y0010162D02*
X0015587D01*
X0016122Y0012593D02*
Y0010147D01*
X0016212Y0012593D02*
Y0010147D01*
X0014703Y0010347D02*
Y0009955D01*
X0014772Y0012670D02*
Y0010117D01*
X0014682Y0012580D02*
Y0010347D01*
X0014592Y0012490D02*
Y0010347D01*
X0014502Y0012402D02*
Y0010347D01*
X0014412Y0012351D02*
Y0010347D01*
X0014232Y0012333D02*
Y0010347D01*
X0014142Y0012333D02*
Y0010347D01*
X0014052Y0012333D02*
Y0010347D01*
X0013962Y0012333D02*
Y0010347D01*
X0009029Y0010612D02*
X0000372D01*
X0014901Y0010252D02*
X0014703D01*
X0014805Y0010162D02*
X0014703D01*
X0014745Y0010072D02*
X0014703D01*
X0015762Y0012593D02*
Y0010147D01*
X0015852Y0012593D02*
Y0010147D01*
X0015942Y0012593D02*
Y0010147D01*
X0016032Y0012593D02*
Y0010147D01*
X0014738Y0009622D02*
X0014703D01*
X0014794Y0009532D02*
X0014703D01*
X0019711Y0014227D02*
Y0013835D01*
X0019888Y0014662D02*
X0017402D01*
X0019632Y0014676D02*
Y0014227D01*
X0019542Y0014676D02*
Y0014227D01*
X0019452Y0014676D02*
Y0014227D01*
X0019362Y0014676D02*
Y0014227D01*
X0019272Y0014676D02*
Y0014227D01*
X0019182Y0014676D02*
Y0014227D01*
X0019092Y0014676D02*
Y0014227D01*
X0019002Y0014676D02*
Y0014227D01*
X0018912Y0014676D02*
Y0014227D01*
X0018822Y0014676D02*
Y0014227D01*
X0019755Y0012996D02*
Y0000532D01*
X0019748Y0013942D02*
X0019711D01*
X0019812Y0014676D02*
Y0014041D01*
X0019888Y0014392D02*
X0017402D01*
X0019722Y0014676D02*
Y0013876D01*
X0019888Y0014122D02*
X0019711D01*
X0009029Y0012592D02*
X0000372D01*
X0016458Y0012593D02*
X0015748D01*
X0016752Y0009533D02*
Y0000532D01*
X0014415Y0008159D02*
X0014311D01*
X0010178Y0014572D02*
X0000372D01*
X0015402Y0009377D02*
Y0000532D01*
X0017059Y0009533D02*
X0015599D01*
X0019755Y0007372D02*
X0015205D01*
X0014952Y0007185D02*
Y0006385D01*
X0014682Y0007185D02*
Y0006385D01*
X0014592Y0007185D02*
Y0006385D01*
X0014502Y0007185D02*
Y0006385D01*
X0013291Y0005951D02*
Y0005391D01*
X0014232D02*
Y0000532D01*
X0011870Y0007372D02*
X0000372D01*
X0013512Y0012630D02*
Y0006598D01*
X0014232Y0007185D02*
Y0006385D01*
X0014142Y0007185D02*
Y0006385D01*
X0014052Y0007185D02*
Y0006385D01*
X0013962Y0007185D02*
Y0006385D01*
X0019755Y0007282D02*
X0015205D01*
X0010272Y0008970D02*
Y0000532D01*
X0013692Y0007185D02*
Y0006418D01*
X0012792Y0013350D02*
Y0007318D01*
X0019755Y0007192D02*
X0015205D01*
X0019755Y0006292D02*
X0015125D01*
X0019755Y0006202D02*
X0015125D01*
X0019755Y0006112D02*
X0015125D01*
Y0006385D02*
X0014285D01*
X0017059Y0009532D02*
X0015598D01*
X0018893Y0009932D02*
X0018396D01*
Y0009435D02*
Y0009932D01*
Y0010429D02*
Y0009932D01*
X0013968Y0007185D02*
Y0007672D01*
Y0008159D02*
Y0007672D01*
X0014322Y0009333D02*
Y0008159D01*
X0013521Y0007672D02*
X0013968D01*
X0019204Y0014227D02*
Y0013720D01*
Y0013213D02*
Y0013720D01*
X0018697D02*
X0019204D01*
X0018732Y0014676D02*
Y0014227D01*
X0013291Y0005572D02*
X0000372D01*
X0015125Y0005888D02*
X0014628D01*
Y0005391D02*
Y0005888D01*
X0019755Y0000712D02*
X0000372D01*
X0011600Y0007642D02*
X0000372D01*
X0018912Y0013213D02*
Y0000532D01*
X0018697Y0013222D02*
X0017290D01*
X0018697Y0013312D02*
X0017200D01*
X0019711Y0013604D02*
Y0013213D01*
X0015223Y0012991D02*
X0015093D01*
X0009029Y0013042D02*
X0000372D01*
X0013100D02*
X0011113D01*
X0016572Y0009533D02*
Y0000532D01*
X0016459Y0012592D02*
X0014694D01*
X0009426Y0013672D02*
X0000372D01*
X0012208Y0013093D02*
X0011148D01*
X0013782Y0012375D02*
Y0010347D01*
X0016543Y0012502D02*
X0014604D01*
X0019888Y0013312D02*
X0019711D01*
X0014882Y0009442D02*
X0014703D01*
X0019888Y0014676D02*
Y0014116D01*
X0015582Y0012642D02*
Y0010168D01*
X0019888Y0014212D02*
X0019711D01*
X0019805Y0014032D02*
X0019711D01*
X0014308Y0012333D02*
X0013936D01*
X0009156Y0013402D02*
X0000372D01*
X0012765Y0013377D02*
X0013717Y0012425D01*
X0014322Y0012333D02*
Y0010347D01*
X0015093Y0012991D02*
X0014527Y0012425D01*
X0009786Y0014032D02*
X0000372D01*
X0012072Y0013093D02*
Y0008038D01*
X0009029Y0011332D02*
X0000372D01*
X0019755D02*
X0009643D01*
X0019755Y0011422D02*
X0009643D01*
X0010452Y0008790D02*
Y0000532D01*
X0015442Y0012772D02*
X0014874D01*
X0010362Y0008880D02*
Y0000532D01*
X0011510Y0007732D02*
X0000372D01*
X0013521Y0007642D02*
X0012468D01*
X0009192Y0014676D02*
Y0013438D01*
X0009029Y0013148D02*
Y0010340D01*
X0019755Y0005662D02*
X0015125D01*
X0019755Y0005752D02*
X0015125D01*
X0019755Y0005842D02*
X0015125D01*
X0013422Y0005391D02*
Y0000532D01*
X0009282Y0014676D02*
Y0013528D01*
X0019755Y0010792D02*
X0009643D01*
X0019755Y0010882D02*
X0009643D01*
X0010178Y0014424D02*
X0009121Y0013367D01*
X0019755Y0009712D02*
X0018893D01*
X0019755Y0009802D02*
X0018893D01*
X0019755Y0009892D02*
X0018893D01*
X0019755Y0009982D02*
X0018893D01*
X0019755Y0010072D02*
X0018893D01*
X0019755Y0010162D02*
X0018893D01*
X0019755Y0010252D02*
X0018893D01*
X0019755Y0007642D02*
X0015205D01*
X0015060Y0009352D02*
X0014703D01*
X0019755Y0009442D02*
X0018893D01*
X0015222Y0009334D02*
Y0000532D01*
X0017059Y0009442D02*
X0015509D01*
X0019755Y0009622D02*
X0018893D01*
X0017202Y0009435D02*
Y0000532D01*
X0015223Y0012991D02*
X0015529Y0012685D01*
X0015312Y0012902D02*
Y0010333D01*
X0018012Y0014676D02*
Y0010429D01*
X0017382Y0012758D02*
Y0010429D01*
X0018893D02*
Y0009435D01*
X0018053D01*
X0016302Y0012593D02*
Y0010147D01*
X0019755Y0009532D02*
X0018893D01*
X0018053Y0009435D02*
X0017899D01*
X0017059D01*
X0011420Y0007822D02*
X0000372D01*
X0013782Y0007185D02*
Y0006385D01*
Y0009333D02*
Y0008159D01*
X0015205D02*
Y0007185D01*
X0013521Y0008159D02*
Y0007185D01*
X0014772D02*
Y0006385D01*
X0014415Y0007185D02*
X0014311D01*
X0012619Y0013377D02*
X0012427Y0013185D01*
X0013010Y0013132D02*
X0012357D01*
X0010178Y0014676D02*
Y0014424D01*
X0009710Y0009532D02*
X0000372D01*
X0017059Y0009533D02*
Y0009435D01*
X0014703Y0010347D02*
X0013689D01*
Y0009333D01*
X0014703D02*
X0013689D01*
X0019755Y0008182D02*
X0011928D01*
X0019711Y0014227D02*
X0018697D01*
Y0013213D01*
X0019711D02*
X0018697D01*
X0019751Y0013492D02*
X0019711D01*
X0019755Y0012412D02*
X0017064D01*
X0015312Y0009347D02*
Y0000532D01*
X0016662Y0009533D02*
Y0000532D01*
X0013280Y0012862D02*
X0010855D01*
X0019755Y0005932D02*
X0015125D01*
X0019755Y0006022D02*
X0015125D01*
Y0006385D02*
Y0005391D01*
X0014285D01*
X0013422Y0012720D02*
Y0006688D01*
X0019755Y0005572D02*
X0015125D01*
X0014285Y0005391D02*
X0014131D01*
X0013291D01*
X0000496Y0014676D02*
X0000372D01*
Y0000532D01*
X0019755Y0005482D02*
X0015125D01*
X0014322Y0007185D02*
Y0006385D01*
X0019888Y0013324D02*
Y0013243D01*
X0019809Y0013402D02*
X0019711D01*
X0019722Y0013564D02*
Y0000532D01*
X0019632Y0013213D02*
Y0000532D01*
X0019542Y0013213D02*
Y0000532D01*
X0019452Y0013213D02*
Y0000532D01*
X0019362Y0013213D02*
Y0000532D01*
X0019272Y0013213D02*
Y0000532D01*
X0019182Y0013213D02*
Y0000532D01*
X0019092Y0013213D02*
Y0000532D01*
X0019002Y0013213D02*
Y0000532D01*
X0018822Y0009435D02*
Y0000532D01*
X0018732Y0009435D02*
Y0000532D01*
X0018642Y0009435D02*
Y0000532D01*
X0018552Y0009435D02*
Y0000532D01*
X0018462Y0009435D02*
Y0000532D01*
X0018372Y0009435D02*
Y0000532D01*
X0018282Y0009435D02*
Y0000532D01*
X0018053Y0010429D02*
X0017899D01*
X0018192Y0009435D02*
Y0000532D01*
X0018102Y0009435D02*
Y0000532D01*
X0017922Y0009435D02*
Y0000532D01*
X0017832Y0009435D02*
Y0000532D01*
X0017742Y0009435D02*
Y0000532D01*
X0017652Y0009435D02*
Y0000532D01*
X0017562Y0009435D02*
Y0000532D01*
X0017472Y0009435D02*
Y0000532D01*
X0017382Y0009435D02*
Y0000532D01*
X0017292Y0009435D02*
Y0000532D01*
Y0012580D02*
Y0010429D01*
X0017202Y0012489D02*
Y0010429D01*
X0017112Y0012433D02*
Y0010429D01*
X0013130Y0006112D02*
X0000372D01*
X0017112Y0009435D02*
Y0000532D01*
X0017022Y0009533D02*
Y0000532D01*
X0016932Y0009533D02*
Y0000532D01*
X0016842Y0009533D02*
Y0000532D01*
X0016482Y0009533D02*
Y0000532D01*
X0016392Y0009533D02*
Y0000532D01*
X0016302Y0009533D02*
Y0000532D01*
X0016212Y0009533D02*
Y0000532D01*
X0016122Y0009533D02*
Y0000532D01*
X0016032Y0009533D02*
Y0000532D01*
X0015942Y0009533D02*
Y0000532D01*
X0010182Y0013560D02*
Y0013422D01*
X0015852Y0009533D02*
Y0000532D01*
X0015672Y0009533D02*
Y0000532D01*
X0015582Y0009512D02*
Y0000532D01*
X0015492Y0009429D02*
Y0000532D01*
X0015132Y0007185D02*
Y0000532D01*
X0015042Y0005391D02*
Y0000532D01*
X0014952Y0005391D02*
Y0000532D01*
X0014862Y0005391D02*
Y0000532D01*
X0014772Y0005391D02*
Y0000532D01*
X0014682Y0005391D02*
Y0000532D01*
X0014592Y0005391D02*
Y0000532D01*
X0014502Y0005391D02*
Y0000532D01*
X0014285Y0006385D02*
X0014131D01*
X0014412Y0005391D02*
Y0000532D01*
X0014322Y0005391D02*
Y0000532D01*
X0014142Y0005391D02*
Y0000532D01*
X0014052Y0005391D02*
Y0000532D01*
X0013962Y0005391D02*
Y0000532D01*
X0013872Y0005391D02*
Y0000532D01*
X0013782Y0005391D02*
Y0000532D01*
X0013692Y0005391D02*
Y0000532D01*
X0013602Y0005391D02*
Y0000532D01*
X0013512Y0005391D02*
Y0000532D01*
X0013602Y0007185D02*
Y0006508D01*
X0013332Y0005391D02*
Y0000532D01*
X0013242Y0006000D02*
Y0000532D01*
X0013152Y0006090D02*
Y0000532D01*
X0013062Y0006180D02*
Y0000532D01*
X0012972Y0006270D02*
Y0000532D01*
X0012882Y0006360D02*
Y0000532D01*
X0012792Y0006450D02*
Y0000532D01*
X0012702Y0006540D02*
Y0000532D01*
X0012612Y0006630D02*
Y0000532D01*
X0012522Y0006720D02*
Y0000532D01*
X0012342Y0006900D02*
Y0000532D01*
X0012252Y0006990D02*
Y0000532D01*
X0012162Y0007080D02*
Y0000532D01*
X0012072Y0007170D02*
Y0000532D01*
X0011982Y0007260D02*
Y0000532D01*
X0011892Y0007350D02*
Y0000532D01*
X0011802Y0007440D02*
Y0000532D01*
X0011712Y0007530D02*
Y0000532D01*
X0011622Y0007620D02*
Y0000532D01*
X0011532Y0007710D02*
Y0000532D01*
X0011442Y0007800D02*
Y0000532D01*
X0015205Y0007185D02*
X0014415D01*
X0011352Y0007890D02*
Y0000532D01*
X0011262Y0007980D02*
Y0000532D01*
X0011172Y0008070D02*
Y0000532D01*
X0011082Y0008160D02*
Y0000532D01*
X0010992Y0008250D02*
Y0000532D01*
X0010902Y0008340D02*
Y0000532D01*
X0010812Y0008430D02*
Y0000532D01*
X0010722Y0008520D02*
Y0000532D01*
X0010632Y0008610D02*
Y0000532D01*
X0010542Y0008700D02*
Y0000532D01*
X0014131Y0006385D02*
X0013725D01*
X0019755Y0004132D02*
X0000372D01*
X0010092Y0009150D02*
Y0000532D01*
X0010002Y0009240D02*
Y0000532D01*
X0009912Y0009330D02*
Y0000532D01*
X0009822Y0009420D02*
Y0000532D01*
X0009732Y0009510D02*
Y0000532D01*
X0009642Y0009600D02*
Y0000532D01*
X0009552Y0009690D02*
Y0000532D01*
X0009462Y0009780D02*
Y0000532D01*
X0009372Y0009870D02*
Y0000532D01*
X0009282Y0009960D02*
Y0000532D01*
X0009102Y0010142D02*
Y0000532D01*
X0009012Y0014676D02*
Y0000532D01*
X0008922Y0014676D02*
Y0000532D01*
X0008832Y0014676D02*
Y0000532D01*
X0008742Y0014676D02*
Y0000532D01*
X0008652Y0014676D02*
Y0000532D01*
X0008562Y0014676D02*
Y0000532D01*
X0008472Y0014676D02*
Y0000532D01*
X0008382Y0014676D02*
Y0000532D01*
X0008292Y0014676D02*
Y0000532D01*
X0008202Y0014676D02*
Y0000532D01*
X0008112Y0014676D02*
Y0000532D01*
X0008022Y0014676D02*
Y0000532D01*
X0007932Y0014676D02*
Y0000532D01*
X0007842Y0014676D02*
Y0000532D01*
X0007752Y0014676D02*
Y0000532D01*
X0007662Y0014676D02*
Y0000532D01*
X0007572Y0014676D02*
Y0000532D01*
X0007482Y0014676D02*
Y0000532D01*
X0007392Y0014676D02*
Y0000532D01*
X0007302Y0014676D02*
Y0000532D01*
X0007212Y0014676D02*
Y0000532D01*
X0007122Y0014676D02*
Y0000532D01*
X0007032Y0014676D02*
Y0000532D01*
X0006942Y0014676D02*
Y0000532D01*
X0006852Y0014676D02*
Y0000532D01*
X0006762Y0014676D02*
Y0000532D01*
X0006672Y0014676D02*
Y0000532D01*
X0006582Y0014676D02*
Y0000532D01*
X0006492Y0014676D02*
Y0000532D01*
X0006402Y0014676D02*
Y0000532D01*
X0006312Y0014676D02*
Y0000532D01*
X0006222Y0014676D02*
Y0000532D01*
X0006132Y0014676D02*
Y0000532D01*
X0006042Y0014676D02*
Y0000532D01*
X0005952Y0014676D02*
Y0000532D01*
X0005862Y0014676D02*
Y0000532D01*
X0005772Y0014676D02*
Y0000532D01*
X0005682Y0014676D02*
Y0000532D01*
X0005592Y0014676D02*
Y0000532D01*
X0005502Y0014676D02*
Y0000532D01*
X0005412Y0014676D02*
Y0000532D01*
X0005322Y0014676D02*
Y0000532D01*
X0005232Y0014676D02*
Y0000532D01*
X0005142Y0014676D02*
Y0000532D01*
X0005052Y0014676D02*
Y0000532D01*
X0004962Y0014676D02*
Y0000532D01*
X0004872Y0014676D02*
Y0000532D01*
X0004782Y0014676D02*
Y0000532D01*
X0004692Y0014676D02*
Y0000532D01*
X0004602Y0014676D02*
Y0000532D01*
X0004512Y0014676D02*
Y0000532D01*
X0004422Y0014676D02*
Y0000532D01*
X0004332Y0014676D02*
Y0000532D01*
X0004242Y0014676D02*
Y0000532D01*
X0004152Y0014676D02*
Y0000532D01*
X0004062Y0014676D02*
Y0000532D01*
X0003972Y0014676D02*
Y0000532D01*
X0003882Y0014676D02*
Y0000532D01*
X0003792Y0014676D02*
Y0000532D01*
X0003702Y0014676D02*
Y0000532D01*
X0003612Y0014676D02*
Y0000532D01*
X0003522Y0014676D02*
Y0000532D01*
X0003432Y0014676D02*
Y0000532D01*
X0003342Y0014676D02*
Y0000532D01*
X0003252Y0014676D02*
Y0000532D01*
X0003162Y0014676D02*
Y0000532D01*
X0003072Y0014676D02*
Y0000532D01*
X0002982Y0014676D02*
Y0000532D01*
X0002892Y0014676D02*
Y0000532D01*
X0002802Y0014676D02*
Y0000532D01*
X0002712Y0014676D02*
Y0000532D01*
X0002622Y0014676D02*
Y0000532D01*
X0002532Y0014676D02*
Y0000532D01*
X0002442Y0014676D02*
Y0000532D01*
X0002352Y0014676D02*
Y0000532D01*
X0002262Y0014676D02*
Y0000532D01*
X0002172Y0014676D02*
Y0000532D01*
X0002082Y0014676D02*
Y0000532D01*
X0001992Y0014676D02*
Y0000532D01*
X0001902Y0014676D02*
Y0000532D01*
X0001812Y0014676D02*
Y0000532D01*
X0001722Y0014676D02*
Y0000532D01*
X0001632Y0014676D02*
Y0000532D01*
X0001542Y0014676D02*
Y0000532D01*
X0001452Y0014676D02*
Y0000532D01*
X0001362Y0014676D02*
Y0000532D01*
X0001272Y0014676D02*
Y0000532D01*
X0001182Y0014676D02*
Y0000532D01*
X0001092Y0014676D02*
Y0000532D01*
X0001002Y0014676D02*
Y0000532D01*
X0000912Y0014676D02*
Y0000532D01*
X0000822Y0014676D02*
Y0000532D01*
X0000732Y0014676D02*
Y0000532D01*
X0000642Y0014676D02*
Y0000532D01*
X0000552Y0014676D02*
Y0000532D01*
X0014628Y0006385D02*
Y0005888D01*
X0010257Y0013635D02*
X0009643Y0013021D01*
X0010178Y0014676D02*
X0000496D01*
X0010178Y0014662D02*
X0000372D01*
X0012432Y0006810D02*
Y0000532D01*
X0009732Y0013110D02*
Y0010378D01*
X0010178Y0014482D02*
X0000372D01*
X0010146Y0014392D02*
X0000372D01*
X0010056Y0014302D02*
X0000372D01*
X0009966Y0014212D02*
X0000372D01*
X0009876Y0014122D02*
X0000372D01*
X0019755Y0011512D02*
X0009643D01*
X0009696Y0013942D02*
X0000372D01*
X0009606Y0013852D02*
X0000372D01*
X0009516Y0013762D02*
X0000372D01*
X0014703Y0009724D02*
Y0009333D01*
X0009336Y0013582D02*
X0000372D01*
X0009246Y0013492D02*
X0000372D01*
X0009038Y0013222D02*
X0000372D01*
X0009029Y0013132D02*
X0000372D01*
X0013190Y0012952D02*
X0011025D01*
X0009029D02*
X0000372D01*
X0009029Y0012862D02*
X0000372D01*
X0009029Y0012772D02*
X0000372D01*
X0009029Y0012682D02*
X0000372D01*
X0009029Y0012502D02*
X0000372D01*
X0009029Y0012412D02*
X0000372D01*
X0009029Y0012322D02*
X0000372D01*
X0009029Y0012232D02*
X0000372D01*
X0009029Y0012142D02*
X0000372D01*
X0009029Y0012052D02*
X0000372D01*
X0009029Y0011962D02*
X0000372D01*
X0009029Y0011872D02*
X0000372D01*
X0009029Y0011782D02*
X0000372D01*
X0009029Y0011692D02*
X0000372D01*
X0009029Y0011602D02*
X0000372D01*
X0009029Y0011512D02*
X0000372D01*
X0009029Y0011422D02*
X0000372D01*
X0009192Y0010050D02*
Y0000532D01*
X0009029Y0011242D02*
X0000372D01*
X0009029Y0011152D02*
X0000372D01*
X0009029Y0011062D02*
X0000372D01*
X0009029Y0010972D02*
X0000372D01*
X0009029Y0010882D02*
X0000372D01*
X0019755Y0010972D02*
X0009643D01*
X0009029Y0010792D02*
X0000372D01*
X0009029Y0010702D02*
X0000372D01*
X0014862Y0007185D02*
Y0006385D01*
X0013872Y0007185D02*
Y0006385D01*
X0009029Y0010522D02*
X0000372D01*
X0009029Y0010432D02*
X0000372D01*
X0009029Y0010342D02*
X0000372D01*
X0009086Y0010162D02*
X0000372D01*
X0009170Y0010072D02*
X0000372D01*
X0009260Y0009982D02*
X0000372D01*
X0009350Y0009892D02*
X0000372D01*
X0009440Y0009802D02*
X0000372D01*
X0009530Y0009712D02*
X0000372D01*
X0009620Y0009622D02*
X0000372D01*
X0009800Y0009442D02*
X0000372D01*
X0009890Y0009352D02*
X0000372D01*
X0009980Y0009262D02*
X0000372D01*
X0010070Y0009172D02*
X0000372D01*
X0010160Y0009082D02*
X0000372D01*
X0010250Y0008992D02*
X0000372D01*
X0010340Y0008902D02*
X0000372D01*
X0010430Y0008812D02*
X0000372D01*
X0010520Y0008722D02*
X0000372D01*
X0010610Y0008632D02*
X0000372D01*
X0010700Y0008542D02*
X0000372D01*
X0010790Y0008452D02*
X0000372D01*
X0010880Y0008362D02*
X0000372D01*
X0014311Y0007185D02*
X0013521D01*
X0010970Y0008272D02*
X0000372D01*
X0011060Y0008182D02*
X0000372D01*
X0011150Y0008092D02*
X0000372D01*
X0011240Y0008002D02*
X0000372D01*
X0011330Y0007912D02*
X0000372D01*
X0015205Y0008159D02*
X0014415D01*
X0009643Y0010467D02*
X0013725Y0006385D01*
X0010182Y0009060D02*
Y0000532D01*
X0011690Y0007552D02*
X0000372D01*
X0011780Y0007462D02*
X0000372D01*
X0011960Y0007282D02*
X0000372D01*
X0012050Y0007192D02*
X0000372D01*
X0012140Y0007102D02*
X0000372D01*
X0012230Y0007012D02*
X0000372D01*
X0012320Y0006922D02*
X0000372D01*
X0012410Y0006832D02*
X0000372D01*
X0012500Y0006742D02*
X0000372D01*
X0012590Y0006652D02*
X0000372D01*
X0012680Y0006562D02*
X0000372D01*
X0009119Y0010123D02*
X0013291Y0005951D01*
X0012770Y0006472D02*
X0000372D01*
X0012860Y0006382D02*
X0000372D01*
X0012950Y0006292D02*
X0000372D01*
X0013040Y0006202D02*
X0000372D01*
X0013220Y0006022D02*
X0000372D01*
X0013291Y0005932D02*
X0000372D01*
X0013291Y0005842D02*
X0000372D01*
X0013291Y0005752D02*
X0000372D01*
X0013291Y0005662D02*
X0000372D01*
X0019755Y0006382D02*
X0013728D01*
X0013291Y0005482D02*
X0000372D01*
X0019755Y0005392D02*
X0000372D01*
X0019755Y0005302D02*
X0000372D01*
X0019755Y0005212D02*
X0000372D01*
X0019755Y0005122D02*
X0000372D01*
X0019755Y0005032D02*
X0000372D01*
X0019755Y0004942D02*
X0000372D01*
X0019755Y0004852D02*
X0000372D01*
X0019755Y0004762D02*
X0000372D01*
X0019755Y0004672D02*
X0000372D01*
X0019755Y0004582D02*
X0000372D01*
X0019755Y0004492D02*
X0000372D01*
X0019755Y0004402D02*
X0000372D01*
X0019755Y0004312D02*
X0000372D01*
X0019755Y0000532D02*
X0000372D01*
X0000462Y0014676D02*
Y0000532D01*
X0019755Y0004042D02*
X0000372D01*
X0019755Y0003952D02*
X0000372D01*
X0019755Y0003862D02*
X0000372D01*
X0019755Y0003772D02*
X0000372D01*
X0019755Y0003682D02*
X0000372D01*
X0019755Y0003592D02*
X0000372D01*
X0019755Y0003502D02*
X0000372D01*
X0019755Y0003412D02*
X0000372D01*
X0019755Y0003322D02*
X0000372D01*
X0019755Y0003232D02*
X0000372D01*
X0019755Y0003142D02*
X0000372D01*
X0019755Y0003052D02*
X0000372D01*
X0019755Y0002962D02*
X0000372D01*
X0019755Y0002872D02*
X0000372D01*
X0019755Y0002782D02*
X0000372D01*
X0019755Y0002692D02*
X0000372D01*
X0019755Y0002602D02*
X0000372D01*
X0019755Y0002512D02*
X0000372D01*
X0019755Y0002422D02*
X0000372D01*
X0019755Y0002332D02*
X0000372D01*
X0019755Y0002242D02*
X0000372D01*
X0019755Y0002152D02*
X0000372D01*
X0019755Y0002062D02*
X0000372D01*
X0019755Y0001972D02*
X0000372D01*
X0019755Y0001882D02*
X0000372D01*
X0019755Y0001792D02*
X0000372D01*
X0019755Y0001702D02*
X0000372D01*
X0019755Y0001612D02*
X0000372D01*
X0019755Y0001522D02*
X0000372D01*
X0019755Y0001432D02*
X0000372D01*
X0019755Y0001342D02*
X0000372D01*
X0019755Y0001252D02*
X0000372D01*
X0019755Y0001162D02*
X0000372D01*
X0019755Y0001072D02*
X0000372D01*
X0019755Y0000982D02*
X0000372D01*
X0019755Y0000892D02*
X0000372D01*
X0019755Y0000802D02*
X0000372D01*
X0009102Y0014676D02*
Y0013346D01*
X0017402Y0014676D02*
Y0014378D01*
X0011172Y0013093D02*
Y0008938D01*
X0012830Y0013312D02*
X0012554D01*
X0012920Y0013222D02*
X0012464D01*
X0015532Y0012682D02*
X0014784D01*
X0013731Y0012412D02*
X0009643D01*
X0016695D02*
X0014513D01*
X0017472Y0014676D02*
Y0010429D01*
X0010092Y0014676D02*
Y0014338D01*
X0010002Y0014676D02*
Y0014248D01*
X0009912Y0014676D02*
Y0014158D01*
X0009822Y0014676D02*
Y0014068D01*
X0010228Y0013582D02*
X0010204D01*
X0010195Y0013492D02*
X0010114D01*
X0009077Y0013312D02*
X0000372D01*
X0010180Y0013402D02*
X0010024D01*
X0010180Y0013312D02*
X0009934D01*
X0010197Y0013222D02*
X0009844D01*
X0010231Y0013132D02*
X0009754D01*
X0010375Y0012952D02*
X0009643D01*
X0010544Y0012862D02*
X0009643D01*
X0013332Y0012810D02*
Y0006778D01*
X0013370Y0012772D02*
X0009643D01*
X0013460Y0012682D02*
X0009643D01*
X0013550Y0012592D02*
X0009643D01*
X0013640Y0012502D02*
X0009643D01*
X0019755Y0000622D02*
X0000372D01*
X0019755Y0012322D02*
X0009643D01*
X0019755Y0012232D02*
X0009643D01*
X0019755Y0012142D02*
X0009643D01*
X0019755Y0012052D02*
X0009643D01*
X0019755Y0011962D02*
X0009643D01*
X0019755Y0011872D02*
X0009643D01*
X0019755Y0011782D02*
X0009643D01*
X0019755Y0011692D02*
X0009643D01*
X0019755Y0011602D02*
X0009643D01*
X0019759Y0013042D02*
X0017382D01*
X0019755Y0011152D02*
X0009643D01*
X0019755Y0011062D02*
X0009643D01*
X0009042Y0010252D02*
X0000372D01*
X0019755Y0010702D02*
X0009643D01*
X0019755Y0010522D02*
X0009643D01*
X0015127Y0010342D02*
X0009768D01*
X0013689Y0010252D02*
X0009858D01*
X0013689Y0010162D02*
X0009948D01*
X0013689Y0010072D02*
X0010038D01*
X0013689Y0009982D02*
X0010128D01*
X0013689Y0009892D02*
X0010218D01*
X0013689Y0009802D02*
X0010308D01*
X0013689Y0009712D02*
X0010398D01*
X0013689Y0009622D02*
X0010488D01*
X0013689Y0009532D02*
X0010578D01*
X0013689Y0009442D02*
X0010668D01*
X0013689Y0009352D02*
X0010758D01*
X0019755Y0010432D02*
X0009678D01*
X0019755Y0009262D02*
X0010848D01*
X0019755Y0009172D02*
X0010938D01*
X0019755Y0009082D02*
X0011028D01*
X0019755Y0008992D02*
X0011118D01*
X0019755Y0008902D02*
X0011208D01*
X0019755Y0008812D02*
X0011298D01*
X0019755Y0008722D02*
X0011388D01*
X0019755Y0008632D02*
X0011478D01*
X0019755Y0008542D02*
X0011568D01*
X0019755Y0008452D02*
X0011658D01*
X0019755Y0008362D02*
X0011748D01*
X0019755Y0008272D02*
X0011838D01*
X0013521Y0008092D02*
X0012018D01*
X0013521Y0008002D02*
X0012108D01*
X0013521Y0007912D02*
X0012198D01*
X0013521Y0007822D02*
X0012288D01*
X0013521Y0007732D02*
X0012378D01*
X0013602Y0012540D02*
Y0008159D01*
X0013242Y0012900D02*
Y0006868D01*
X0013152Y0012990D02*
Y0006958D01*
X0013062Y0013080D02*
Y0007048D01*
X0012972Y0013170D02*
Y0007138D01*
X0012882Y0013260D02*
Y0007228D01*
X0012702Y0013377D02*
Y0007408D01*
X0012612Y0013370D02*
Y0007498D01*
X0012522Y0013280D02*
Y0007588D01*
X0012432Y0013190D02*
Y0007678D01*
X0012342Y0013124D02*
Y0007768D01*
X0012252Y0013096D02*
Y0007858D01*
X0012162Y0013093D02*
Y0007948D01*
X0011982Y0013093D02*
Y0008128D01*
X0011892Y0013093D02*
Y0008218D01*
X0011802Y0013093D02*
Y0008308D01*
X0011712Y0013093D02*
Y0008398D01*
X0011622Y0013093D02*
Y0008488D01*
X0011532Y0013093D02*
Y0008578D01*
X0011442Y0013093D02*
Y0008668D01*
X0011352Y0013093D02*
Y0008758D01*
X0011262Y0013093D02*
Y0008848D01*
X0011082Y0013005D02*
Y0009028D01*
X0010992Y0012928D02*
Y0009118D01*
X0010902Y0012879D02*
Y0009208D01*
X0010812Y0012850D02*
Y0009298D01*
X0010722Y0012839D02*
Y0009388D01*
X0010632Y0012843D02*
Y0009478D01*
X0010542Y0012863D02*
Y0009568D01*
X0010452Y0012901D02*
Y0009658D01*
X0010362Y0012962D02*
Y0009748D01*
X0010272Y0013062D02*
Y0009838D01*
X0010182Y0013298D02*
Y0009928D01*
X0009643Y0013021D02*
Y0010467D01*
X0010092Y0013470D02*
Y0010018D01*
X0010002Y0013380D02*
Y0010108D01*
X0009912Y0013290D02*
Y0010198D01*
X0009822Y0013200D02*
Y0010288D01*
X0019755Y0010612D02*
X0009643D01*
X0010286Y0013042D02*
X0009664D01*
X0009732Y0014676D02*
Y0013978D01*
X0009642Y0014676D02*
Y0013888D01*
X0009552Y0014676D02*
Y0013798D01*
X0009462Y0014676D02*
Y0013708D01*
X0009372Y0014676D02*
Y0013618D01*
X0013521Y0007552D02*
X0012558D01*
X0013521Y0007462D02*
X0012648D01*
X0013521Y0007372D02*
X0012738D01*
X0013521Y0007282D02*
X0012828D01*
X0013521Y0007192D02*
X0012918D01*
X0019755Y0009352D02*
X0015332D01*
X0019755Y0007102D02*
X0013008D01*
X0019755Y0007012D02*
X0013098D01*
X0019755Y0006922D02*
X0013188D01*
X0019755Y0006832D02*
X0013278D01*
X0019755Y0006742D02*
X0013368D01*
X0019755Y0006652D02*
X0013458D01*
X0019755Y0006562D02*
X0013548D01*
X0019755Y0006472D02*
X0013638D01*
X0017022Y0012398D02*
Y0010147D01*
X0016932Y0012381D02*
Y0010147D01*
X0016842Y0012380D02*
Y0010147D01*
X0016752Y0012394D02*
Y0010147D01*
X0016662Y0012426D02*
Y0010147D01*
X0016572Y0012479D02*
Y0010147D01*
X0016482Y0012563D02*
Y0010147D01*
X0015352Y0012862D02*
X0014964D01*
X0016392Y0012593D02*
Y0010147D01*
X0017059Y0010429D02*
Y0010147D01*
X0017382Y0013758D02*
Y0013042D01*
X0017292Y0013580D02*
Y0013220D01*
X0017202Y0013489D02*
Y0013310D01*
X0017112Y0013433D02*
Y0013367D01*
X0015262Y0012952D02*
X0015054D01*
X0019755Y0011242D02*
X0009643D01*
X0019755Y0012952D02*
X0017399D01*
X0019755Y0012862D02*
X0017400D01*
X0019755Y0012772D02*
X0017386D01*
X0019755Y0012682D02*
X0017354D01*
X0019755Y0012592D02*
X0017301D01*
X0019755Y0012502D02*
X0017217D01*
X0019860Y0013222D02*
X0019711D01*
X0019788Y0013132D02*
X0017347D01*
X0017382Y0014378D02*
Y0014042D01*
X0017292Y0014378D02*
Y0014220D01*
X0017202Y0014378D02*
Y0014310D01*
X0017112Y0014378D02*
Y0014367D01*
X0018697Y0013942D02*
X0017400D01*
X0018697Y0013852D02*
X0017399D01*
X0018697Y0014212D02*
X0017298D01*
X0018697Y0014122D02*
X0017352D01*
X0018697Y0014032D02*
X0017385D01*
X0018697Y0013762D02*
X0017383D01*
X0018697Y0013672D02*
X0017349D01*
X0018697Y0013582D02*
X0017293D01*
X0017402Y0014378D02*
X0017088D01*
X0018697Y0013492D02*
X0017205D01*
X0018697Y0013402D02*
X0017035D01*
X0019888Y0014676D02*
X0017402D01*
X0019888Y0014302D02*
X0017212D01*
X0019888Y0014572D02*
X0017402D01*
X0019888Y0014482D02*
X0017402D01*
X0018822Y0013213D02*
Y0010429D01*
X0018732Y0013213D02*
Y0010429D01*
X0018642Y0014676D02*
Y0010429D01*
X0018552Y0014676D02*
Y0010429D01*
X0018462Y0014676D02*
Y0010429D01*
X0018372Y0014676D02*
Y0010429D01*
X0018282Y0014676D02*
Y0010429D01*
X0018192Y0014676D02*
Y0010429D01*
X0017899D02*
X0017059D01*
X0018012Y0009435D02*
Y0000532D01*
X0018102Y0014676D02*
Y0010429D01*
X0017922Y0014676D02*
Y0010429D01*
X0017832Y0014676D02*
Y0010429D01*
X0017742Y0014676D02*
Y0010429D01*
X0017652Y0014676D02*
Y0010429D01*
X0017562Y0014676D02*
Y0010429D01*
X0014311Y0008159D02*
X0013521D01*
X0015132Y0009337D02*
Y0008159D01*
X0015042Y0009357D02*
Y0008159D01*
X0014952Y0009396D02*
Y0008159D01*
X0014682Y0009333D02*
Y0008159D01*
X0014592Y0009333D02*
Y0008159D01*
X0014502Y0009333D02*
Y0008159D01*
X0014412Y0009333D02*
Y0008159D01*
X0014862Y0009459D02*
Y0008159D01*
X0014772Y0009562D02*
Y0008159D01*
G01X0042115Y0002535D02*
G03X0042332Y0002445I0000217J0000217D01*
G01X0036969Y0005916D02*
G03X0036991Y0005802I0000307J0000000D01*
G01X0032068Y0008936D02*
G03X0031568Y0009270I0000500J0000208D01*
G01X0038068Y0008936D02*
G03X0037568Y0009270I0000500J0000208D01*
G01X0031577Y0007048D02*
G03X0031777Y0006645I0000507J0000000D01*
G01X0032084Y0007555D02*
G03X0031577Y0007048I0000000J0000507D01*
G01X0033577D02*
G03X0034084Y0006541I0000507J0000000D01*
G01X0034591Y0007048D02*
G03X0034084Y0007555I0000507J0000000D01*
G01X0031026Y0011728D02*
G03X0031568Y0011186I0000542J0000000D01*
G03X0032068Y0011520I0000000J0000542D01*
G01X0031568Y0012270D02*
G03X0031026Y0011728I0000000J0000542D01*
G01X0032568Y0011186D02*
G03X0033068Y0011520I0000000J0000542D01*
G01X0032068D02*
G03X0032568Y0011186I0000500J0000208D01*
G01X0032068Y0011936D02*
G03X0031568Y0012270I0000500J0000208D01*
G01X0033568Y0011186D02*
G03X0034068Y0011520I0000000J0000542D01*
G01X0033068D02*
G03X0033568Y0011186I0000500J0000208D01*
G01X0034568D02*
G03X0035068Y0011520I0000000J0000542D01*
G01X0034068D02*
G03X0034568Y0011186I0000500J0000208D01*
G01X0035568D02*
G03X0036068Y0011520I0000000J0000542D01*
G01X0035068D02*
G03X0035568Y0011186I0000500J0000208D01*
G01X0036568D02*
G03X0037068Y0011520I0000000J0000542D01*
G01X0036068D02*
G03X0036568Y0011186I0000500J0000208D01*
G01X0037568D02*
G03X0038068Y0011520I0000000J0000542D01*
G01X0037068D02*
G03X0037568Y0011186I0000500J0000208D01*
G01X0038568D02*
G03X0039110Y0011728I0000000J0000542D01*
G01X0038068Y0011520D02*
G03X0038568Y0011186I0000500J0000208D01*
G01X0039110Y0008728D02*
G03X0038568Y0009270I0000542J0000000D01*
G01X0035568Y0008186D02*
G03X0036068Y0008519I0000000J0000542D01*
G01X0035068D02*
G03X0035568Y0008186I0000500J0000209D01*
G01X0034568D02*
G03X0035068Y0008519I0000000J0000542D01*
G01X0034068D02*
G03X0034568Y0008186I0000500J0000209D01*
G01X0034084Y0007555D02*
G03X0034015Y0007550I0000000J0000507D01*
G01X0032068Y0008519D02*
G03X0032261Y0008281I0000500J0000209D01*
G01X0031026Y0008728D02*
G03X0031568Y0008186I0000542J0000000D01*
G01X0033568Y0009270D02*
G03X0033068Y0008936I0000000J0000542D01*
G01X0031568Y0008186D02*
G03X0032068Y0008519I0000000J0000542D01*
G01X0031568Y0009270D02*
G03X0031026Y0008728I0000000J0000542D01*
G01X0045844Y0001031D02*
G03X0046344Y0000658I0000500J0000149D01*
G01X0045344D02*
G03X0045844Y0001031I0000000J0000522D01*
G01X0044844D02*
G03X0045344Y0000658I0000500J0000149D01*
G01X0044344D02*
G03X0044844Y0001031I0000000J0000522D01*
G01X0043866Y0000972D02*
G03X0044344Y0000659I0000478J0000208D01*
G01X0032391Y0006645D02*
G03X0032591Y0007048I0000307J0000403D01*
G01X0033305Y0007520D02*
G03X0033395Y0007303I0000307J0000000D01*
G01X0038536Y0006403D02*
G03X0039028Y0006834I0000000J0000497D01*
G01X0038145Y0006593D02*
G03X0038536Y0006403I0000391J0000307D01*
G01X0038568Y0009270D02*
G03X0038068Y0008936I0000000J0000542D01*
G01X0037068D02*
G03X0036568Y0009270I0000500J0000208D01*
G01X0037568D02*
G03X0037068Y0008936I0000000J0000542D01*
G01X0033068Y0011936D02*
G03X0032568Y0012270I0000500J0000208D01*
G01X0036568Y0009270D02*
G03X0036068Y0008936I0000000J0000542D01*
G01X0034586Y0006979D02*
G03X0034591Y0007048I0000502J0000069D01*
G01X0032568Y0012270D02*
G03X0032068Y0011936I0000000J0000542D01*
G01X0034799Y0006640D02*
G03X0034709Y0006857I0000307J0000000D01*
G01X0032568Y0009270D02*
G03X0032068Y0008936I0000000J0000542D01*
G01X0036068Y0008519D02*
G03X0036129Y0008410I0000500J0000209D01*
G01X0035068Y0008936D02*
G03X0034568Y0009270I0000500J0000208D01*
G01X0030271Y0003093D02*
G03X0030326Y0003268I0000251J0000175D01*
G01X0033068Y0008936D02*
G03X0032568Y0009270I0000500J0000208D01*
G01X0032591Y0007048D02*
G03X0032586Y0007116I0000507J0000000D01*
G01X0034068Y0008936D02*
G03X0033568Y0009270I0000500J0000208D01*
G01X0034568D02*
G03X0034068Y0008936I0000000J0000542D01*
G01X0033919Y0008315D02*
G03X0034068Y0008519I0000351J0000413D01*
G01X0040525Y0008663D02*
G03X0040335Y0008272I0000307J0000391D01*
G01X0040615Y0009421D02*
G03X0040525Y0009204I0000217J0000217D01*
G01X0040335Y0008272D02*
G03X0040832Y0007775I0000497J0000000D01*
G03X0041329Y0008272I0000000J0000497D01*
G03X0041139Y0008663I0000497J0000000D01*
G01X0036068Y0008936D02*
G03X0035568Y0009270I0000500J0000208D01*
G01X0033261Y0012174D02*
G03X0033068Y0011936I0000307J0000446D01*
G01X0041665Y0006628D02*
G03X0041755Y0006411I0000307J0000000D01*
G01X0041972Y0006935D02*
G03X0041665Y0006628I0000000J0000307D01*
G03X0041755Y0006411I0000307J0000000D01*
G01X0043955Y0008853D02*
G03X0043889Y0008755I0000217J0000217D01*
G01X0043955Y0008853D02*
G03X0043889Y0008755I0000217J0000217D01*
G01X0032785Y0007315D02*
G03X0032875Y0007532I0000217J0000217D01*
G01X0033582Y0007116D02*
G03X0033577Y0007048I0000502J0000068D01*
G01X0034799Y0006640D02*
G03X0034709Y0006857I0000307J0000000D01*
G01X0040743Y0006860D02*
G03X0040653Y0007077I0000307J0000000D01*
G01X0040743Y0006860D02*
G03X0040653Y0007077I0000307J0000000D01*
G01X0041972Y0006935D02*
G03X0041665Y0006628I0000000J0000307D01*
G01X0033305Y0007520D02*
G03X0033395Y0007303I0000307J0000000D01*
G01X0035568Y0009270D02*
G03X0035068Y0008936I0000000J0000542D01*
G01X0040615Y0009421D02*
G03X0040525Y0009204I0000217J0000217D01*
G01X0046344Y0000658D02*
G03X0046744Y0000845I0000000J0000522D01*
G01X0032152Y0007550D02*
G03X0032084Y0007555I0000068J0000502D01*
G01X0034084Y0006541D02*
G03X0034152Y0006546I0000000J0000507D01*
G01X0039110Y0011728D02*
G03X0039100Y0011827I0000542J0000000D01*
Y0008629D02*
G03X0039109Y0008728I0000532J0000099D01*
G01X0044037Y0001602D02*
G03X0043866Y0001388I0000307J0000422D01*
G01X0032875Y0008281D02*
G03X0033068Y0008519I0000307J0000447D01*
G03X0033305Y0008254I0000500J0000209D01*
G01X0014308Y0012333D02*
G03X0014525Y0012423I0000000J0000307D01*
G01X0015531Y0012683D02*
G03X0015748Y0012593I0000217J0000217D01*
G01X0012208Y0013093D02*
G03X0012425Y0013183I0000000J0000307D01*
G01X0019711Y0013604D02*
G03X0019888Y0013324I0000493J0000116D01*
G01X0013719Y0012423D02*
G03X0013936Y0012333I0000217J0000217D01*
G01X0014308D02*
G03X0014525Y0012423I0000000J0000307D01*
G01X0009029Y0010340D02*
G03X0009119Y0010123I0000307J0000000D01*
Y0013365D02*
G03X0009029Y0013148I0000217J0000217D01*
G01X0016880Y0012378D02*
G03X0017402Y0012900I0000000J0000522D01*
G03X0017029Y0013400I0000522J0000000D01*
G01X0017402Y0013900D02*
G03X0017088Y0014378I0000522J0000000D01*
G01X0019888Y0014116D02*
G03X0019711Y0013835I0000316J0000396D01*
G01X0015599Y0010147D02*
G03X0015196Y0010347I0000403J0000307D01*
G01X0010178Y0013360D02*
G03X0010700Y0012838I0000522J0000000D01*
G03X0011148Y0013093I0000000J0000522D01*
G01X0010257Y0013635D02*
G03X0010179Y0013360I0000443J0000275D01*
G01X0015196Y0009333D02*
G03X0015599Y0009533I0000000J0000507D01*
G01X0014703Y0009724D02*
G03X0015196Y0009334I0000493J0000116D01*
Y0010347D02*
G03X0014703Y0009955I0000000J0000507D01*
G01X0019888Y0013243D02*
G03X0019756Y0012996I0000164J0000247D01*
G01X0009119Y0013365D02*
G03X0009029Y0013148I0000217J0000217D01*
G01X0016458Y0012593D02*
G03X0016880Y0012378I0000422J0000307D01*
G01X0015531Y0012683D02*
G03X0015748Y0012593I0000217J0000217D01*
G01X0017029Y0013400D02*
G03X0017402Y0013900I0000149J0000500D01*
G54D20*
G01X0015160Y0013488D02*
X0015748Y0012900D01*
X0016880D01*
X0010700Y0013360D02*
X0010740Y0013400D01*
X0012208D01*
X0012692Y0013884D01*
X0015160Y0013488D02*
X0015156D01*
X0014308Y0012640D01*
X0013936D01*
X0012692Y0013884D01*
X0011080Y0023268D02*
X0011076Y0023272D01*
X0003148Y0018624D02*
X0003216Y0018556D01*
X0004144D01*
X0003148Y0018624D02*
X0003216Y0018556D01*
X0004144D01*
X0004656Y0015980D02*
X0003640D01*
X0003596Y0016024D01*
X0010700Y0014360D02*
X0010740Y0014400D01*
X0010664Y0014476D01*
X0009336Y0013148D01*
Y0010340D01*
X0013788Y0005888D01*
X0019592Y0023424D02*
X0018644D01*
X0018596Y0023376D01*
X0016304Y0023972D02*
X0014600D01*
X0014104Y0024468D01*
X0042220Y0018048D02*
X0042508Y0018336D01*
X0044840D01*
X0045904Y0017272D01*
Y0009028D01*
X0044888D01*
X0044828Y0009088D01*
X0042696Y0010272D02*
X0042624Y0010344D01*
Y0012060D01*
X0001072Y0023860D02*
X0002080D01*
X0002100Y0023840D01*
X0044828Y0009928D02*
X0044708Y0009808D01*
Y0006220D01*
X0041856Y0010272D02*
Y0010228D01*
X0040832Y0009204D01*
Y0008272D01*
X0038536Y0006900D02*
X0037416D01*
X0037276Y0007040D01*
X0006484Y0021884D02*
Y0022856D01*
X0006492Y0022864D01*
X0006484Y0022872D01*
Y0022884D01*
X0007808Y0022664D02*
X0009112D01*
X0009220Y0022772D01*
X0007808Y0022664D02*
X0009112D01*
X0009220Y0022772D01*
X0018596Y0023376D02*
X0018644Y0023424D01*
X0019592D01*
X0016304Y0023972D02*
X0014600D01*
X0014104Y0024468D01*
X0030020Y0014280D02*
Y0003268D01*
X0029348Y0002596D01*
X0015380Y0020896D02*
X0015384Y0020892D01*
X0015400Y0020908D01*
Y0021548D01*
X0041748Y0013068D02*
X0039908D01*
X0038568Y0011728D01*
X0007668Y0021700D02*
X0007792Y0021824D01*
X0007808D01*
X0042996Y0005396D02*
Y0005604D01*
X0041972Y0006628D01*
X0042196D01*
X0044188Y0008620D01*
X0044172Y0008636D01*
X0044624Y0009088D01*
X0044828D01*
X0046344Y0001180D02*
Y0005200D01*
X0046268Y0005276D01*
X0043116D01*
X0042996Y0005396D01*
X0022304Y0023732D02*
X0022748D01*
X0023160Y0024144D01*
Y0024164D01*
X0024596Y0025064D02*
X0022876D01*
X0022324Y0025616D01*
X0027220Y0022260D02*
X0026216D01*
X0024716Y0020760D01*
X0017836Y0017312D02*
X0017860Y0017336D01*
Y0018432D01*
X0003148Y0018624D02*
X0003216Y0018556D01*
X0004144D01*
X0007808Y0022664D02*
X0009112D01*
X0009220Y0022772D01*
X0009112Y0022664D01*
X0007808D01*
X0014076Y0021112D02*
X0015164D01*
X0015380Y0020896D01*
X0007808Y0021824D02*
X0007792D01*
X0008240Y0022272D01*
X0011076D01*
X0011104Y0025468D02*
X0010204Y0024568D01*
X0007824D01*
X0029348Y0002596D02*
X0027332D01*
X0027172Y0002436D01*
X0008676Y0020632D02*
X0008672Y0020628D01*
X0007792D01*
X0044828Y0009928D02*
X0044364Y0010392D01*
X0042816D01*
X0042696Y0010272D01*
X0032568Y0008728D02*
Y0007532D01*
X0032084Y0007048D01*
X0034084D02*
X0034492Y0006640D01*
Y0005408D01*
X0038568Y0008728D02*
X0040436Y0006860D01*
Y0005488D01*
X0045344Y0001180D02*
Y0003592D01*
X0045200Y0003736D01*
X0043816D01*
X0042156Y0005396D01*
X0027220Y0023260D02*
X0025216D01*
X0024716Y0022760D01*
X0034084Y0007048D02*
X0033612Y0007520D01*
Y0008684D01*
X0033568Y0008728D01*
X0002148Y0018624D02*
X0001916Y0018392D01*
Y0018136D01*
X0003240Y0016812D01*
X0003292Y0016864D01*
X0003596D01*
X0033568Y0011728D02*
Y0020320D01*
X0033544Y0020344D01*
X0030304D01*
X0030220Y0020260D01*
X0007824Y0024568D02*
X0007140Y0023884D01*
X0006484D01*
X0017556Y0009932D02*
X0017464Y0009840D01*
X0015196D01*
X0024716Y0022760D02*
X0023520D01*
X0022372Y0021612D01*
X0015456Y0024724D02*
X0026756D01*
X0027220Y0024260D01*
X0044344Y0001180D02*
Y0002544D01*
X0044136Y0002752D01*
X0042332D01*
X0039596Y0005488D01*
X0007808Y0021824D02*
X0006544D01*
X0006484Y0021884D01*
X0024716Y0020760D02*
X0023148D01*
X0022320Y0019932D01*
X0015444Y0022344D02*
X0016532D01*
X0016592Y0022284D01*
Y0018532D01*
X0017812Y0017312D01*
X0017836D01*
X0041748Y0013068D02*
Y0010380D01*
X0041856Y0010272D01*
X0009516Y0020632D02*
X0010556D01*
X0011076Y0020112D01*
X0040436Y0005488D02*
X0040528Y0005396D01*
X0042156D01*
X0037276Y0007040D02*
Y0005916D01*
X0037488Y0005704D01*
X0036568Y0011728D02*
X0036468Y0011828D01*
Y0018196D01*
X0042072D01*
X0042220Y0018048D01*
X0007792Y0019788D02*
Y0019776D01*
X0006580Y0018564D01*
X0003596Y0016864D02*
Y0016756D01*
X0002272Y0015432D01*
X0024148Y0016608D02*
Y0014580D01*
X0024020Y0014452D01*
X0027220Y0020260D02*
X0027172Y0020308D01*
X0026044D01*
Y0016864D01*
X0026128Y0016780D01*
X0026208D01*
X0007792Y0020628D02*
Y0020632D01*
X0007616Y0020808D01*
X0007500D01*
X0007456Y0020852D02*
X0006516D01*
X0006484Y0020884D01*
X0003596Y0016024D02*
X0003640Y0015980D01*
X0004656D01*
X0003640D01*
X0003596Y0016024D01*
X0032084Y0007048D02*
Y0005676D01*
X0032364Y0005396D01*
X0027220Y0026260D02*
X0022968D01*
X0022324Y0025616D01*
X0036568Y0008728D02*
X0036436Y0008596D01*
Y0007040D01*
X0037568Y0008728D02*
X0039596Y0006700D01*
Y0005488D01*
X0018676Y0017312D02*
X0018640Y0017348D01*
Y0020728D01*
X0017596Y0021772D01*
Y0023376D01*
X0015456Y0025564D02*
X0015360Y0025468D01*
X0014104D01*
X0001072Y0023860D02*
X0002080D01*
X0002100Y0023840D01*
X0002080Y0023860D01*
X0001072D01*
X0014076Y0023272D02*
X0015356D01*
X0015444Y0023184D01*
G54D10*
X0042220Y0017208D03*
Y0018048D03*
X0036436Y0007040D03*
X0037276D03*
X0037488Y0005704D03*
X0038328D03*
X0029348Y0002596D03*
X0030188D03*
X0023180Y0014452D03*
X0024020D03*
X0015456Y0025564D03*
Y0024724D03*
X0017556Y0009932D03*
X0018396D03*
X0007824Y0024568D03*
Y0023728D03*
X0007808Y0022664D03*
Y0021824D03*
X0015444Y0023184D03*
Y0022344D03*
X0021464Y0023732D03*
X0022304D03*
X0017836Y0017312D03*
X0018676D03*
X0008676Y0020632D03*
X0009516D03*
X0007792Y0020628D03*
Y0019788D03*
X0015380Y0020896D03*
Y0020056D03*
X0031524Y0005396D03*
X0032364D03*
X0033652Y0005408D03*
X0034492D03*
X0042996Y0005396D03*
X0042156D03*
X0044828Y0009088D03*
Y0009928D03*
X0040436Y0005488D03*
X0039596D03*
X0042696Y0010272D03*
X0041856D03*
X0041748Y0013908D03*
Y0013068D03*
X0026332Y0002436D03*
X0027172D03*
X0021564Y0014184D03*
Y0013344D03*
X0015160Y0014328D03*
Y0013488D03*
X0026144Y0000964D03*
X0026984D03*
X0022012Y0003180D03*
X0022852D03*
X0003596Y0016864D03*
Y0016024D03*
X0021484Y0025616D03*
X0022324D03*
X0013788Y0005888D03*
X0014628D03*
X0021532Y0021612D03*
X0022372D03*
X0021480Y0019932D03*
X0022320D03*
G54D11*
X0034084Y0007048D03*
X0032084D03*
X0024716Y0022760D03*
Y0020760D03*
X0024148Y0016608D03*
X0015196Y0009840D03*
X0018596Y0023376D03*
X0005580Y0018564D03*
X0020204Y0013720D03*
X0013692Y0013884D03*
X0002272Y0015432D03*
G54D12*
X0023148Y0016608D03*
X0014196Y0009840D03*
X0017596Y0023376D03*
X0006580Y0018564D03*
X0019204Y0013720D03*
X0012692Y0013884D03*
X0001272Y0015432D03*
G54D13*
X0006484Y0021884D03*
Y0022884D03*
Y0023884D03*
X0003484D03*
Y0022884D03*
Y0021884D03*
Y0020884D03*
X0014104Y0025468D03*
X0011104D03*
Y0024468D03*
X0014076Y0023272D03*
X0011076D03*
Y0022272D03*
Y0020112D03*
X0014076D03*
Y0021112D03*
G54D14*
X0006484Y0020884D03*
X0014104Y0024468D03*
X0014076Y0022272D03*
X0011076Y0021112D03*
G54D15*
X0016880Y0013900D03*
Y0012900D03*
X0002148Y0018624D03*
X0001148D03*
X0044344Y0001180D03*
X0045344D03*
X0046344D03*
X0010700Y0013360D03*
X0001072Y0022860D03*
Y0021860D03*
Y0020860D03*
G54D16*
X0016880Y0014900D03*
X0003148Y0018624D03*
X0043344Y0001180D03*
X0010700Y0014360D03*
X0001072Y0023860D03*
G54D17*
X0013968Y0007672D03*
X0014758D03*
G54D18*
X0031568Y0008728D03*
X0032568D03*
X0033568D03*
X0034568D03*
X0035568D03*
X0036568D03*
X0037568D03*
X0038568D03*
Y0011728D03*
X0037568D03*
X0036568D03*
X0035568D03*
X0034568D03*
X0033568D03*
X0032568D03*
X0031568D03*
X0027220Y0026260D03*
Y0025260D03*
Y0024260D03*
Y0023260D03*
Y0022260D03*
Y0021260D03*
Y0020260D03*
Y0019260D03*
Y0018260D03*
Y0017260D03*
X0030220D03*
Y0018260D03*
Y0019260D03*
Y0020260D03*
Y0021260D03*
Y0022260D03*
Y0023260D03*
Y0024260D03*
Y0025260D03*
Y0026260D03*
G54D21*
X0042624Y0012060D03*
X0044708Y0006220D03*
X0040832Y0008272D03*
X0038536Y0006900D03*
X0019592Y0023424D03*
X0016304Y0023972D03*
X0030020Y0014280D03*
X0015400Y0021548D03*
X0023160Y0024164D03*
X0024596Y0025064D03*
X0017860Y0018432D03*
X0004144Y0018556D03*
X0009220Y0022772D03*
X0026208Y0016780D03*
X0004656Y0015980D03*
X0002100Y0023840D03*
M02*
