%
T1C0.028F200S100
X002100Y023840
X004144Y018556
X004656Y015980
X009220Y022772
X015400Y021548
X016304Y023972
X017860Y018432
X019592Y023424
X023160Y024164
X024596Y025064
X026208Y016780
X030020Y014280
X038536Y006900
X040832Y008272
X042624Y012060
X044708Y006220
T3C0.034F200S100
X001072Y020860
X001072Y021860
X001072Y022860
X001072Y023860
X003484Y020884
X003484Y021884
X003484Y022884
X003484Y023884
X006484Y020884
X006484Y021884
X006484Y022884
X006484Y023884
X010700Y013360
X010700Y014360
X011076Y020112
X011076Y021112
X011076Y022272
X011076Y023272
X011104Y024468
X011104Y025468
X014076Y020112
X014076Y021112
X014076Y022272
X014076Y023272
X014104Y024468
X014104Y025468
X043344Y001180
X044344Y001180
X045344Y001180
X046344Y001180
T2C0.031F200S100
X001148Y018624
X001272Y015432
X002148Y018624
X002272Y015432
X003148Y018624
X005580Y018564
X006580Y018564
X012692Y013884
X013692Y013884
X014196Y009840
X015196Y009840
X016880Y012900
X016880Y013900
X016880Y014900
X017596Y023376
X018596Y023376
X019204Y013720
X020204Y013720
X023148Y016608
X024148Y016608
X024716Y020760
X024716Y022760
X032084Y007048
X034084Y007048
T4C0.039F200S100
X027220Y017260
X027220Y018260
X027220Y019260
X027220Y020260
X027220Y021260
X027220Y022260
X027220Y023260
X027220Y024260
X027220Y025260
X027220Y026260
X030220Y017260
X030220Y018260
X030220Y019260
X030220Y020260
X030220Y021260
X030220Y022260
X030220Y023260
X030220Y024260
X030220Y025260
X030220Y026260
X031568Y008728
X032568Y008728
X032568Y011728
X031568Y011728
X033568Y008728
X034568Y008728
X034568Y011728
X033568Y011728
X035568Y008728
X036568Y008728
X036568Y011728
X035568Y011728
X037568Y008728
X038568Y008728
X038568Y011728
X037568Y011728
M30
